<?xml version="1.0" encoding="utf-8"?>
<!-- Generator: Adobe Illustrator 16.0.0, SVG Export Plug-In . SVG Version: 6.00 Build 0)  -->
<!DOCTYPE svg PUBLIC "-//W3C//DTD SVG 1.1//EN" "http://www.w3.org/Graphics/SVG/1.1/DTD/svg11.dtd">
<svg version="1.1" id="Livello_1" xmlns="http://www.w3.org/2000/svg" xmlns:xlink="http://www.w3.org/1999/xlink" x="0px" y="0px"
	 width="664.467px" height="206.99px" viewBox="0 0 664.467 206.99" enable-background="new 0 0 664.467 206.99"
	 xml:space="preserve">
<path fill="#999999" d="M535.715,23.74v0.116c0,2.036-0.406,3.73-1.218,5.083c-0.863,1.405-2.036,2.107-3.519,2.107
	c-0.734,0-1.395-0.177-1.98-0.532c-0.587-0.354-1.086-0.879-1.498-1.575c-0.812-1.353-1.218-3.047-1.218-5.083V23.74
	c0-2.036,0.405-3.73,1.218-5.083c0.862-1.404,2.035-2.107,3.518-2.107c0.734,0,1.395,0.177,1.981,0.531
	c0.586,0.355,1.085,0.88,1.498,1.576C535.309,20.009,535.715,21.704,535.715,23.74z M532.893,27.76
	c0.271-0.502,0.479-1.076,0.628-1.72c0.148-0.644,0.223-1.366,0.223-2.165v-0.154c0-0.799-0.074-1.521-0.223-2.165
	s-0.357-1.218-0.628-1.72c-0.258-0.503-0.548-0.86-0.87-1.073c-0.322-0.213-0.67-0.319-1.044-0.319
	c-0.348,0-0.676,0.106-0.985,0.319c-0.31,0.212-0.605,0.57-0.89,1.073c-0.271,0.502-0.479,1.076-0.628,1.72
	s-0.222,1.366-0.222,2.165v0.154c0,1.56,0.276,2.854,0.831,3.885c0.283,0.502,0.583,0.86,0.898,1.073
	c0.315,0.213,0.66,0.319,1.034,0.319c0.348,0,0.677-0.106,0.985-0.319C532.312,28.621,532.609,28.263,532.893,27.76z"/>
<path fill="#999999" d="M546.926,23.74v0.116c0,2.036-0.406,3.73-1.218,5.083c-0.863,1.405-2.036,2.107-3.519,2.107
	c-0.734,0-1.395-0.177-1.98-0.532c-0.587-0.354-1.086-0.879-1.498-1.575c-0.812-1.353-1.218-3.047-1.218-5.083V23.74
	c0-2.036,0.405-3.73,1.218-5.083c0.862-1.404,2.035-2.107,3.518-2.107c0.734,0,1.395,0.177,1.981,0.531
	c0.586,0.355,1.085,0.88,1.498,1.576C546.52,20.009,546.926,21.704,546.926,23.74z M544.104,27.76
	c0.271-0.502,0.479-1.076,0.628-1.72c0.148-0.644,0.223-1.366,0.223-2.165v-0.154c0-0.799-0.074-1.521-0.223-2.165
	s-0.357-1.218-0.628-1.72c-0.258-0.503-0.548-0.86-0.87-1.073c-0.322-0.213-0.67-0.319-1.044-0.319
	c-0.348,0-0.676,0.106-0.985,0.319c-0.31,0.212-0.605,0.57-0.89,1.073c-0.271,0.502-0.479,1.076-0.628,1.72
	s-0.222,1.366-0.222,2.165v0.154c0,1.56,0.276,2.854,0.831,3.885c0.283,0.502,0.583,0.86,0.898,1.073
	c0.315,0.213,0.66,0.319,1.034,0.319c0.348,0,0.677-0.106,0.985-0.319C543.523,28.621,543.82,28.263,544.104,27.76z"/>
<path fill="#999999" d="M558.137,23.74v0.116c0,2.036-0.406,3.73-1.218,5.083c-0.863,1.405-2.036,2.107-3.519,2.107
	c-0.734,0-1.395-0.177-1.98-0.532c-0.587-0.354-1.086-0.879-1.498-1.575c-0.812-1.353-1.218-3.047-1.218-5.083V23.74
	c0-2.036,0.405-3.73,1.218-5.083c0.862-1.404,2.035-2.107,3.518-2.107c0.734,0,1.395,0.177,1.981,0.531
	c0.586,0.355,1.085,0.88,1.498,1.576C557.73,20.009,558.137,21.704,558.137,23.74z M555.314,27.76
	c0.271-0.502,0.479-1.076,0.628-1.72c0.148-0.644,0.223-1.366,0.223-2.165v-0.154c0-0.799-0.074-1.521-0.223-2.165
	s-0.357-1.218-0.628-1.72c-0.258-0.503-0.548-0.86-0.87-1.073c-0.322-0.213-0.67-0.319-1.044-0.319
	c-0.348,0-0.676,0.106-0.985,0.319c-0.31,0.212-0.605,0.57-0.89,1.073c-0.271,0.502-0.479,1.076-0.628,1.72
	s-0.222,1.366-0.222,2.165v0.154c0,1.56,0.276,2.854,0.831,3.885c0.283,0.502,0.583,0.86,0.898,1.073
	c0.315,0.213,0.66,0.319,1.034,0.319c0.348,0,0.677-0.106,0.985-0.319C554.734,28.621,555.031,28.263,555.314,27.76z"/>
<path fill="#999999" d="M565.172,16.723v14.149H563.2V20.725l-2.436,2.455l-1.353-1.392l3.788-3.77v-1.295H565.172z"/>
<path fill="#999999" d="M575.9,23.74v0.116c0,2.036-0.406,3.73-1.218,5.083c-0.863,1.405-2.036,2.107-3.519,2.107
	c-0.734,0-1.395-0.177-1.98-0.532c-0.587-0.354-1.086-0.879-1.498-1.575c-0.812-1.353-1.218-3.047-1.218-5.083V23.74
	c0-2.036,0.405-3.73,1.218-5.083c0.862-1.404,2.035-2.107,3.518-2.107c0.734,0,1.395,0.177,1.981,0.531
	c0.586,0.355,1.085,0.88,1.498,1.576C575.494,20.009,575.9,21.704,575.9,23.74z M573.078,27.76c0.271-0.502,0.479-1.076,0.628-1.72
	c0.148-0.644,0.223-1.366,0.223-2.165v-0.154c0-0.799-0.074-1.521-0.223-2.165s-0.357-1.218-0.628-1.72
	c-0.258-0.503-0.548-0.86-0.87-1.073c-0.322-0.213-0.67-0.319-1.044-0.319c-0.348,0-0.676,0.106-0.985,0.319
	c-0.31,0.212-0.605,0.57-0.89,1.073c-0.271,0.502-0.479,1.076-0.628,1.72s-0.222,1.366-0.222,2.165v0.154
	c0,1.56,0.276,2.854,0.831,3.885c0.283,0.502,0.583,0.86,0.898,1.073c0.315,0.213,0.66,0.319,1.034,0.319
	c0.348,0,0.677-0.106,0.985-0.319C572.498,28.621,572.795,28.263,573.078,27.76z"/>
<path fill="#999999" d="M582.936,16.723v14.149h-1.972V20.725l-2.436,2.455l-1.353-1.392l3.788-3.77v-1.295H582.936z"/>
<path fill="#999999" d="M593.663,23.74v0.116c0,2.036-0.406,3.73-1.218,5.083c-0.863,1.405-2.036,2.107-3.519,2.107
	c-0.734,0-1.395-0.177-1.98-0.532c-0.587-0.354-1.086-0.879-1.498-1.575c-0.812-1.353-1.218-3.047-1.218-5.083V23.74
	c0-2.036,0.405-3.73,1.218-5.083c0.862-1.404,2.035-2.107,3.518-2.107c0.734,0,1.395,0.177,1.981,0.531
	c0.586,0.355,1.085,0.88,1.498,1.576C593.257,20.009,593.663,21.704,593.663,23.74z M590.841,27.76
	c0.271-0.502,0.479-1.076,0.628-1.72c0.148-0.644,0.223-1.366,0.223-2.165v-0.154c0-0.799-0.074-1.521-0.223-2.165
	s-0.357-1.218-0.628-1.72c-0.258-0.503-0.548-0.86-0.87-1.073c-0.322-0.213-0.67-0.319-1.044-0.319
	c-0.348,0-0.676,0.106-0.985,0.319c-0.31,0.212-0.605,0.57-0.89,1.073c-0.271,0.502-0.479,1.076-0.628,1.72
	s-0.222,1.366-0.222,2.165v0.154c0,1.56,0.276,2.854,0.831,3.885c0.283,0.502,0.583,0.86,0.898,1.073
	c0.315,0.213,0.66,0.319,1.034,0.319c0.348,0,0.677-0.106,0.985-0.319C590.261,28.621,590.558,28.263,590.841,27.76z"/>
<path fill="#999999" d="M600.698,16.723v14.149h-1.972V20.725l-2.436,2.455l-1.353-1.392l3.788-3.77v-1.295H600.698z"/>
<path fill="#999999" d="M607.831,16.723v14.149h-1.972V20.725l-2.436,2.455l-1.353-1.392l3.788-3.77v-1.295H607.831z"/>
<path fill="#999999" d="M618.559,23.74v0.116c0,2.036-0.406,3.73-1.218,5.083c-0.863,1.405-2.036,2.107-3.519,2.107
	c-0.734,0-1.395-0.177-1.98-0.532c-0.587-0.354-1.086-0.879-1.498-1.575c-0.812-1.353-1.218-3.047-1.218-5.083V23.74
	c0-2.036,0.405-3.73,1.218-5.083c0.862-1.404,2.035-2.107,3.518-2.107c0.734,0,1.395,0.177,1.981,0.531
	c0.586,0.355,1.085,0.88,1.498,1.576C618.152,20.009,618.559,21.704,618.559,23.74z M615.736,27.76
	c0.271-0.502,0.479-1.076,0.628-1.72c0.148-0.644,0.223-1.366,0.223-2.165v-0.154c0-0.799-0.074-1.521-0.223-2.165
	s-0.357-1.218-0.628-1.72c-0.258-0.503-0.548-0.86-0.87-1.073c-0.322-0.213-0.67-0.319-1.044-0.319
	c-0.348,0-0.676,0.106-0.985,0.319c-0.31,0.212-0.605,0.57-0.89,1.073c-0.271,0.502-0.479,1.076-0.628,1.72
	s-0.222,1.366-0.222,2.165v0.154c0,1.56,0.276,2.854,0.831,3.885c0.283,0.502,0.583,0.86,0.898,1.073
	c0.315,0.213,0.66,0.319,1.034,0.319c0.348,0,0.677-0.106,0.985-0.319C615.156,28.621,615.453,28.263,615.736,27.76z"/>
<path fill="#999999" d="M546.926,46.935v0.116c0,2.036-0.406,3.73-1.218,5.083c-0.863,1.405-2.036,2.107-3.519,2.107
	c-0.734,0-1.395-0.177-1.98-0.532c-0.587-0.354-1.086-0.879-1.498-1.575c-0.812-1.353-1.218-3.047-1.218-5.083v-0.116
	c0-2.036,0.405-3.73,1.218-5.083c0.862-1.404,2.035-2.107,3.518-2.107c0.734,0,1.395,0.177,1.981,0.531
	c0.586,0.355,1.085,0.88,1.498,1.576C546.52,43.205,546.926,44.899,546.926,46.935z M544.104,50.956
	c0.271-0.502,0.479-1.076,0.628-1.72c0.148-0.644,0.223-1.366,0.223-2.165v-0.154c0-0.799-0.074-1.521-0.223-2.165
	s-0.357-1.218-0.628-1.72c-0.258-0.503-0.548-0.86-0.87-1.073c-0.322-0.213-0.67-0.319-1.044-0.319
	c-0.348,0-0.676,0.106-0.985,0.319c-0.31,0.212-0.605,0.57-0.89,1.073c-0.271,0.502-0.479,1.076-0.628,1.72
	s-0.222,1.366-0.222,2.165v0.154c0,1.56,0.276,2.854,0.831,3.885c0.283,0.502,0.583,0.86,0.898,1.073
	c0.315,0.213,0.66,0.319,1.034,0.319c0.348,0,0.677-0.106,0.985-0.319C543.523,51.816,543.82,51.458,544.104,50.956z"/>
<path fill="#999999" d="M558.137,46.935v0.116c0,2.036-0.406,3.73-1.218,5.083c-0.863,1.405-2.036,2.107-3.519,2.107
	c-0.734,0-1.395-0.177-1.98-0.532c-0.587-0.354-1.086-0.879-1.498-1.575c-0.812-1.353-1.218-3.047-1.218-5.083v-0.116
	c0-2.036,0.405-3.73,1.218-5.083c0.862-1.404,2.035-2.107,3.518-2.107c0.734,0,1.395,0.177,1.981,0.531
	c0.586,0.355,1.085,0.88,1.498,1.576C557.73,43.205,558.137,44.899,558.137,46.935z M555.314,50.956
	c0.271-0.502,0.479-1.076,0.628-1.72c0.148-0.644,0.223-1.366,0.223-2.165v-0.154c0-0.799-0.074-1.521-0.223-2.165
	s-0.357-1.218-0.628-1.72c-0.258-0.503-0.548-0.86-0.87-1.073c-0.322-0.213-0.67-0.319-1.044-0.319
	c-0.348,0-0.676,0.106-0.985,0.319c-0.31,0.212-0.605,0.57-0.89,1.073c-0.271,0.502-0.479,1.076-0.628,1.72
	s-0.222,1.366-0.222,2.165v0.154c0,1.56,0.276,2.854,0.831,3.885c0.283,0.502,0.583,0.86,0.898,1.073
	c0.315,0.213,0.66,0.319,1.034,0.319c0.348,0,0.677-0.106,0.985-0.319C554.734,51.816,555.031,51.458,555.314,50.956z"/>
<path fill="#999999" d="M565.172,39.918v14.149H563.2V43.92l-2.436,2.455l-1.353-1.392l3.788-3.77v-1.295H565.172z"/>
<path fill="#999999" d="M575.9,46.935v0.116c0,2.036-0.406,3.73-1.218,5.083c-0.863,1.405-2.036,2.107-3.519,2.107
	c-0.734,0-1.395-0.177-1.98-0.532c-0.587-0.354-1.086-0.879-1.498-1.575c-0.812-1.353-1.218-3.047-1.218-5.083v-0.116
	c0-2.036,0.405-3.73,1.218-5.083c0.862-1.404,2.035-2.107,3.518-2.107c0.734,0,1.395,0.177,1.981,0.531
	c0.586,0.355,1.085,0.88,1.498,1.576C575.494,43.205,575.9,44.899,575.9,46.935z M573.078,50.956
	c0.271-0.502,0.479-1.076,0.628-1.72c0.148-0.644,0.223-1.366,0.223-2.165v-0.154c0-0.799-0.074-1.521-0.223-2.165
	s-0.357-1.218-0.628-1.72c-0.258-0.503-0.548-0.86-0.87-1.073c-0.322-0.213-0.67-0.319-1.044-0.319
	c-0.348,0-0.676,0.106-0.985,0.319c-0.31,0.212-0.605,0.57-0.89,1.073c-0.271,0.502-0.479,1.076-0.628,1.72
	s-0.222,1.366-0.222,2.165v0.154c0,1.56,0.276,2.854,0.831,3.885c0.283,0.502,0.583,0.86,0.898,1.073
	c0.315,0.213,0.66,0.319,1.034,0.319c0.348,0,0.677-0.106,0.985-0.319C572.498,51.816,572.795,51.458,573.078,50.956z"/>
<path fill="#999999" d="M582.936,39.918v14.149h-1.972V43.92l-2.436,2.455l-1.353-1.392l3.788-3.77v-1.295H582.936z"/>
<path fill="#999999" d="M593.663,46.935v0.116c0,2.036-0.406,3.73-1.218,5.083c-0.863,1.405-2.036,2.107-3.519,2.107
	c-0.734,0-1.395-0.177-1.98-0.532c-0.587-0.354-1.086-0.879-1.498-1.575c-0.812-1.353-1.218-3.047-1.218-5.083v-0.116
	c0-2.036,0.405-3.73,1.218-5.083c0.862-1.404,2.035-2.107,3.518-2.107c0.734,0,1.395,0.177,1.981,0.531
	c0.586,0.355,1.085,0.88,1.498,1.576C593.257,43.205,593.663,44.899,593.663,46.935z M590.841,50.956
	c0.271-0.502,0.479-1.076,0.628-1.72c0.148-0.644,0.223-1.366,0.223-2.165v-0.154c0-0.799-0.074-1.521-0.223-2.165
	s-0.357-1.218-0.628-1.72c-0.258-0.503-0.548-0.86-0.87-1.073c-0.322-0.213-0.67-0.319-1.044-0.319
	c-0.348,0-0.676,0.106-0.985,0.319c-0.31,0.212-0.605,0.57-0.89,1.073c-0.271,0.502-0.479,1.076-0.628,1.72
	s-0.222,1.366-0.222,2.165v0.154c0,1.56,0.276,2.854,0.831,3.885c0.283,0.502,0.583,0.86,0.898,1.073
	c0.315,0.213,0.66,0.319,1.034,0.319c0.348,0,0.677-0.106,0.985-0.319C590.261,51.816,590.558,51.458,590.841,50.956z"/>
<path fill="#999999" d="M600.698,39.918v14.149h-1.972V43.92l-2.436,2.455l-1.353-1.392l3.788-3.77v-1.295H600.698z"/>
<path fill="#999999" d="M607.831,39.918v14.149h-1.972V43.92l-2.436,2.455l-1.353-1.392l3.788-3.77v-1.295H607.831z"/>
<path fill="#999999" d="M618.559,46.935v0.116c0,2.036-0.406,3.73-1.218,5.083c-0.863,1.405-2.036,2.107-3.519,2.107
	c-0.734,0-1.395-0.177-1.98-0.532c-0.587-0.354-1.086-0.879-1.498-1.575c-0.812-1.353-1.218-3.047-1.218-5.083v-0.116
	c0-2.036,0.405-3.73,1.218-5.083c0.862-1.404,2.035-2.107,3.518-2.107c0.734,0,1.395,0.177,1.981,0.531
	c0.586,0.355,1.085,0.88,1.498,1.576C618.152,43.205,618.559,44.899,618.559,46.935z M615.736,50.956
	c0.271-0.502,0.479-1.076,0.628-1.72c0.148-0.644,0.223-1.366,0.223-2.165v-0.154c0-0.799-0.074-1.521-0.223-2.165
	s-0.357-1.218-0.628-1.72c-0.258-0.503-0.548-0.86-0.87-1.073c-0.322-0.213-0.67-0.319-1.044-0.319
	c-0.348,0-0.676,0.106-0.985,0.319c-0.31,0.212-0.605,0.57-0.89,1.073c-0.271,0.502-0.479,1.076-0.628,1.72
	s-0.222,1.366-0.222,2.165v0.154c0,1.56,0.276,2.854,0.831,3.885c0.283,0.502,0.583,0.86,0.898,1.073
	c0.315,0.213,0.66,0.319,1.034,0.319c0.348,0,0.677-0.106,0.985-0.319C615.156,51.816,615.453,51.458,615.736,50.956z"/>
<path fill="#999999" d="M625.594,39.918v14.149h-1.972V43.92l-2.436,2.455l-1.353-1.392l3.788-3.77v-1.295H625.594z"/>
<path fill="#999999" d="M636.322,46.935v0.116c0,2.036-0.406,3.73-1.218,5.083c-0.863,1.405-2.036,2.107-3.519,2.107
	c-0.734,0-1.395-0.177-1.98-0.532c-0.587-0.354-1.086-0.879-1.498-1.575c-0.812-1.353-1.218-3.047-1.218-5.083v-0.116
	c0-2.036,0.405-3.73,1.218-5.083c0.862-1.404,2.035-2.107,3.518-2.107c0.734,0,1.395,0.177,1.981,0.531
	c0.586,0.355,1.085,0.88,1.498,1.576C635.916,43.205,636.322,44.899,636.322,46.935z M633.5,50.956
	c0.271-0.502,0.479-1.076,0.628-1.72c0.148-0.644,0.223-1.366,0.223-2.165v-0.154c0-0.799-0.074-1.521-0.223-2.165
	s-0.357-1.218-0.628-1.72c-0.258-0.503-0.548-0.86-0.87-1.073c-0.322-0.213-0.67-0.319-1.044-0.319
	c-0.348,0-0.676,0.106-0.985,0.319c-0.31,0.212-0.605,0.57-0.89,1.073c-0.271,0.502-0.479,1.076-0.628,1.72
	s-0.222,1.366-0.222,2.165v0.154c0,1.56,0.276,2.854,0.831,3.885c0.283,0.502,0.583,0.86,0.898,1.073
	c0.315,0.213,0.66,0.319,1.034,0.319c0.348,0,0.677-0.106,0.985-0.319C632.92,51.816,633.217,51.458,633.5,50.956z"/>
<path fill="#999999" d="M643.357,39.918v14.149h-1.972V43.92l-2.436,2.455l-1.353-1.392l3.788-3.77v-1.295H643.357z"/>
<path fill="#999999" d="M654.086,46.935v0.116c0,2.036-0.406,3.73-1.218,5.083c-0.863,1.405-2.036,2.107-3.519,2.107
	c-0.734,0-1.395-0.177-1.98-0.532c-0.587-0.354-1.086-0.879-1.498-1.575c-0.812-1.353-1.218-3.047-1.218-5.083v-0.116
	c0-2.036,0.405-3.73,1.218-5.083c0.862-1.404,2.035-2.107,3.518-2.107c0.734,0,1.395,0.177,1.981,0.531
	c0.586,0.355,1.085,0.88,1.498,1.576C653.68,43.205,654.086,44.899,654.086,46.935z M651.264,50.956
	c0.271-0.502,0.479-1.076,0.628-1.72c0.148-0.644,0.223-1.366,0.223-2.165v-0.154c0-0.799-0.074-1.521-0.223-2.165
	s-0.357-1.218-0.628-1.72c-0.258-0.503-0.548-0.86-0.87-1.073c-0.322-0.213-0.67-0.319-1.044-0.319
	c-0.348,0-0.676,0.106-0.985,0.319c-0.31,0.212-0.605,0.57-0.89,1.073c-0.271,0.502-0.479,1.076-0.628,1.72
	s-0.222,1.366-0.222,2.165v0.154c0,1.56,0.276,2.854,0.831,3.885c0.283,0.502,0.583,0.86,0.898,1.073
	c0.315,0.213,0.66,0.319,1.034,0.319c0.348,0,0.677-0.106,0.985-0.319C650.684,51.816,650.98,51.458,651.264,50.956z"/>
<path fill="#999999" d="M535.715,70.13v0.116c0,2.036-0.406,3.73-1.218,5.083c-0.863,1.405-2.036,2.107-3.519,2.107
	c-0.734,0-1.395-0.177-1.98-0.532c-0.587-0.354-1.086-0.879-1.498-1.575c-0.812-1.353-1.218-3.047-1.218-5.083V70.13
	c0-2.036,0.405-3.73,1.218-5.083c0.862-1.404,2.035-2.107,3.518-2.107c0.734,0,1.395,0.177,1.981,0.531
	c0.586,0.355,1.085,0.88,1.498,1.576C535.309,66.4,535.715,68.095,535.715,70.13z M532.893,74.151
	c0.271-0.502,0.479-1.076,0.628-1.72c0.148-0.644,0.223-1.366,0.223-2.165v-0.154c0-0.799-0.074-1.521-0.223-2.165
	s-0.357-1.218-0.628-1.72c-0.258-0.503-0.548-0.86-0.87-1.073c-0.322-0.213-0.67-0.319-1.044-0.319
	c-0.348,0-0.676,0.106-0.985,0.319c-0.31,0.212-0.605,0.57-0.89,1.073c-0.271,0.502-0.479,1.076-0.628,1.72
	s-0.222,1.366-0.222,2.165v0.154c0,1.56,0.276,2.854,0.831,3.885c0.283,0.502,0.583,0.86,0.898,1.073
	c0.315,0.213,0.66,0.319,1.034,0.319c0.348,0,0.677-0.106,0.985-0.319C532.312,75.011,532.609,74.653,532.893,74.151z"/>
<path fill="#999999" d="M546.926,70.13v0.116c0,2.036-0.406,3.73-1.218,5.083c-0.863,1.405-2.036,2.107-3.519,2.107
	c-0.734,0-1.395-0.177-1.98-0.532c-0.587-0.354-1.086-0.879-1.498-1.575c-0.812-1.353-1.218-3.047-1.218-5.083V70.13
	c0-2.036,0.405-3.73,1.218-5.083c0.862-1.404,2.035-2.107,3.518-2.107c0.734,0,1.395,0.177,1.981,0.531
	c0.586,0.355,1.085,0.88,1.498,1.576C546.52,66.4,546.926,68.095,546.926,70.13z M544.104,74.151
	c0.271-0.502,0.479-1.076,0.628-1.72c0.148-0.644,0.223-1.366,0.223-2.165v-0.154c0-0.799-0.074-1.521-0.223-2.165
	s-0.357-1.218-0.628-1.72c-0.258-0.503-0.548-0.86-0.87-1.073c-0.322-0.213-0.67-0.319-1.044-0.319
	c-0.348,0-0.676,0.106-0.985,0.319c-0.31,0.212-0.605,0.57-0.89,1.073c-0.271,0.502-0.479,1.076-0.628,1.72
	s-0.222,1.366-0.222,2.165v0.154c0,1.56,0.276,2.854,0.831,3.885c0.283,0.502,0.583,0.86,0.898,1.073
	c0.315,0.213,0.66,0.319,1.034,0.319c0.348,0,0.677-0.106,0.985-0.319C543.523,75.011,543.82,74.653,544.104,74.151z"/>
<path fill="#999999" d="M558.137,70.13v0.116c0,2.036-0.406,3.73-1.218,5.083c-0.863,1.405-2.036,2.107-3.519,2.107
	c-0.734,0-1.395-0.177-1.98-0.532c-0.587-0.354-1.086-0.879-1.498-1.575c-0.812-1.353-1.218-3.047-1.218-5.083V70.13
	c0-2.036,0.405-3.73,1.218-5.083c0.862-1.404,2.035-2.107,3.518-2.107c0.734,0,1.395,0.177,1.981,0.531
	c0.586,0.355,1.085,0.88,1.498,1.576C557.73,66.4,558.137,68.095,558.137,70.13z M555.314,74.151
	c0.271-0.502,0.479-1.076,0.628-1.72c0.148-0.644,0.223-1.366,0.223-2.165v-0.154c0-0.799-0.074-1.521-0.223-2.165
	s-0.357-1.218-0.628-1.72c-0.258-0.503-0.548-0.86-0.87-1.073c-0.322-0.213-0.67-0.319-1.044-0.319
	c-0.348,0-0.676,0.106-0.985,0.319c-0.31,0.212-0.605,0.57-0.89,1.073c-0.271,0.502-0.479,1.076-0.628,1.72
	s-0.222,1.366-0.222,2.165v0.154c0,1.56,0.276,2.854,0.831,3.885c0.283,0.502,0.583,0.86,0.898,1.073
	c0.315,0.213,0.66,0.319,1.034,0.319c0.348,0,0.677-0.106,0.985-0.319C554.734,75.011,555.031,74.653,555.314,74.151z"/>
<path fill="#999999" d="M565.172,63.114v14.149H563.2V67.115l-2.436,2.455l-1.353-1.392l3.788-3.77v-1.295H565.172z"/>
<path fill="#999999" d="M575.9,70.13v0.116c0,2.036-0.406,3.73-1.218,5.083c-0.863,1.405-2.036,2.107-3.519,2.107
	c-0.734,0-1.395-0.177-1.98-0.532c-0.587-0.354-1.086-0.879-1.498-1.575c-0.812-1.353-1.218-3.047-1.218-5.083V70.13
	c0-2.036,0.405-3.73,1.218-5.083c0.862-1.404,2.035-2.107,3.518-2.107c0.734,0,1.395,0.177,1.981,0.531
	c0.586,0.355,1.085,0.88,1.498,1.576C575.494,66.4,575.9,68.095,575.9,70.13z M573.078,74.151c0.271-0.502,0.479-1.076,0.628-1.72
	c0.148-0.644,0.223-1.366,0.223-2.165v-0.154c0-0.799-0.074-1.521-0.223-2.165s-0.357-1.218-0.628-1.72
	c-0.258-0.503-0.548-0.86-0.87-1.073c-0.322-0.213-0.67-0.319-1.044-0.319c-0.348,0-0.676,0.106-0.985,0.319
	c-0.31,0.212-0.605,0.57-0.89,1.073c-0.271,0.502-0.479,1.076-0.628,1.72s-0.222,1.366-0.222,2.165v0.154
	c0,1.56,0.276,2.854,0.831,3.885c0.283,0.502,0.583,0.86,0.898,1.073c0.315,0.213,0.66,0.319,1.034,0.319
	c0.348,0,0.677-0.106,0.985-0.319C572.498,75.011,572.795,74.653,573.078,74.151z"/>
<path fill="#999999" d="M582.936,63.114v14.149h-1.972V67.115l-2.436,2.455l-1.353-1.392l3.788-3.77v-1.295H582.936z"/>
<path fill="#999999" d="M593.663,70.13v0.116c0,2.036-0.406,3.73-1.218,5.083c-0.863,1.405-2.036,2.107-3.519,2.107
	c-0.734,0-1.395-0.177-1.98-0.532c-0.587-0.354-1.086-0.879-1.498-1.575c-0.812-1.353-1.218-3.047-1.218-5.083V70.13
	c0-2.036,0.405-3.73,1.218-5.083c0.862-1.404,2.035-2.107,3.518-2.107c0.734,0,1.395,0.177,1.981,0.531
	c0.586,0.355,1.085,0.88,1.498,1.576C593.257,66.4,593.663,68.095,593.663,70.13z M590.841,74.151
	c0.271-0.502,0.479-1.076,0.628-1.72c0.148-0.644,0.223-1.366,0.223-2.165v-0.154c0-0.799-0.074-1.521-0.223-2.165
	s-0.357-1.218-0.628-1.72c-0.258-0.503-0.548-0.86-0.87-1.073c-0.322-0.213-0.67-0.319-1.044-0.319
	c-0.348,0-0.676,0.106-0.985,0.319c-0.31,0.212-0.605,0.57-0.89,1.073c-0.271,0.502-0.479,1.076-0.628,1.72
	s-0.222,1.366-0.222,2.165v0.154c0,1.56,0.276,2.854,0.831,3.885c0.283,0.502,0.583,0.86,0.898,1.073
	c0.315,0.213,0.66,0.319,1.034,0.319c0.348,0,0.677-0.106,0.985-0.319C590.261,75.011,590.558,74.653,590.841,74.151z"/>
<path fill="#999999" d="M600.698,63.114v14.149h-1.972V67.115l-2.436,2.455l-1.353-1.392l3.788-3.77v-1.295H600.698z"/>
<path fill="#999999" d="M607.831,63.114v14.149h-1.972V67.115l-2.436,2.455l-1.353-1.392l3.788-3.77v-1.295H607.831z"/>
<path fill="#999999" d="M618.559,70.13v0.116c0,2.036-0.406,3.73-1.218,5.083c-0.863,1.405-2.036,2.107-3.519,2.107
	c-0.734,0-1.395-0.177-1.98-0.532c-0.587-0.354-1.086-0.879-1.498-1.575c-0.812-1.353-1.218-3.047-1.218-5.083V70.13
	c0-2.036,0.405-3.73,1.218-5.083c0.862-1.404,2.035-2.107,3.518-2.107c0.734,0,1.395,0.177,1.981,0.531
	c0.586,0.355,1.085,0.88,1.498,1.576C618.152,66.4,618.559,68.095,618.559,70.13z M615.736,74.151
	c0.271-0.502,0.479-1.076,0.628-1.72c0.148-0.644,0.223-1.366,0.223-2.165v-0.154c0-0.799-0.074-1.521-0.223-2.165
	s-0.357-1.218-0.628-1.72c-0.258-0.503-0.548-0.86-0.87-1.073c-0.322-0.213-0.67-0.319-1.044-0.319
	c-0.348,0-0.676,0.106-0.985,0.319c-0.31,0.212-0.605,0.57-0.89,1.073c-0.271,0.502-0.479,1.076-0.628,1.72
	s-0.222,1.366-0.222,2.165v0.154c0,1.56,0.276,2.854,0.831,3.885c0.283,0.502,0.583,0.86,0.898,1.073
	c0.315,0.213,0.66,0.319,1.034,0.319c0.348,0,0.677-0.106,0.985-0.319C615.156,75.011,615.453,74.653,615.736,74.151z"/>
<path fill="#999999" d="M546.926,93.326v0.116c0,2.036-0.406,3.73-1.218,5.083c-0.863,1.405-2.036,2.107-3.519,2.107
	c-0.734,0-1.395-0.177-1.98-0.532c-0.587-0.354-1.086-0.879-1.498-1.575c-0.812-1.353-1.218-3.047-1.218-5.083v-0.116
	c0-2.036,0.405-3.73,1.218-5.083c0.862-1.404,2.035-2.107,3.518-2.107c0.734,0,1.395,0.177,1.981,0.531
	c0.586,0.355,1.085,0.88,1.498,1.576C546.52,89.596,546.926,91.291,546.926,93.326z M544.104,97.347
	c0.271-0.502,0.479-1.076,0.628-1.72c0.148-0.644,0.223-1.366,0.223-2.165v-0.154c0-0.799-0.074-1.521-0.223-2.165
	s-0.357-1.218-0.628-1.72c-0.258-0.503-0.548-0.86-0.87-1.073c-0.322-0.213-0.67-0.319-1.044-0.319
	c-0.348,0-0.676,0.106-0.985,0.319c-0.31,0.212-0.605,0.57-0.89,1.073c-0.271,0.502-0.479,1.076-0.628,1.72
	s-0.222,1.366-0.222,2.165v0.154c0,1.56,0.276,2.854,0.831,3.885c0.283,0.502,0.583,0.86,0.898,1.073
	c0.315,0.213,0.66,0.319,1.034,0.319c0.348,0,0.677-0.106,0.985-0.319C543.523,98.207,543.82,97.849,544.104,97.347z"/>
<path fill="#999999" d="M558.137,93.326v0.116c0,2.036-0.406,3.73-1.218,5.083c-0.863,1.405-2.036,2.107-3.519,2.107
	c-0.734,0-1.395-0.177-1.98-0.532c-0.587-0.354-1.086-0.879-1.498-1.575c-0.812-1.353-1.218-3.047-1.218-5.083v-0.116
	c0-2.036,0.405-3.73,1.218-5.083c0.862-1.404,2.035-2.107,3.518-2.107c0.734,0,1.395,0.177,1.981,0.531
	c0.586,0.355,1.085,0.88,1.498,1.576C557.73,89.596,558.137,91.291,558.137,93.326z M555.314,97.347
	c0.271-0.502,0.479-1.076,0.628-1.72c0.148-0.644,0.223-1.366,0.223-2.165v-0.154c0-0.799-0.074-1.521-0.223-2.165
	s-0.357-1.218-0.628-1.72c-0.258-0.503-0.548-0.86-0.87-1.073c-0.322-0.213-0.67-0.319-1.044-0.319
	c-0.348,0-0.676,0.106-0.985,0.319c-0.31,0.212-0.605,0.57-0.89,1.073c-0.271,0.502-0.479,1.076-0.628,1.72
	s-0.222,1.366-0.222,2.165v0.154c0,1.56,0.276,2.854,0.831,3.885c0.283,0.502,0.583,0.86,0.898,1.073
	c0.315,0.213,0.66,0.319,1.034,0.319c0.348,0,0.677-0.106,0.985-0.319C554.734,98.207,555.031,97.849,555.314,97.347z"/>
<path fill="#999999" d="M565.172,86.31v14.149H563.2V90.311l-2.436,2.455l-1.353-1.392l3.788-3.77V86.31H565.172z"/>
<path fill="#999999" d="M575.9,93.326v0.116c0,2.036-0.406,3.73-1.218,5.083c-0.863,1.405-2.036,2.107-3.519,2.107
	c-0.734,0-1.395-0.177-1.98-0.532c-0.587-0.354-1.086-0.879-1.498-1.575c-0.812-1.353-1.218-3.047-1.218-5.083v-0.116
	c0-2.036,0.405-3.73,1.218-5.083c0.862-1.404,2.035-2.107,3.518-2.107c0.734,0,1.395,0.177,1.981,0.531
	c0.586,0.355,1.085,0.88,1.498,1.576C575.494,89.596,575.9,91.291,575.9,93.326z M573.078,97.347
	c0.271-0.502,0.479-1.076,0.628-1.72c0.148-0.644,0.223-1.366,0.223-2.165v-0.154c0-0.799-0.074-1.521-0.223-2.165
	s-0.357-1.218-0.628-1.72c-0.258-0.503-0.548-0.86-0.87-1.073c-0.322-0.213-0.67-0.319-1.044-0.319
	c-0.348,0-0.676,0.106-0.985,0.319c-0.31,0.212-0.605,0.57-0.89,1.073c-0.271,0.502-0.479,1.076-0.628,1.72
	s-0.222,1.366-0.222,2.165v0.154c0,1.56,0.276,2.854,0.831,3.885c0.283,0.502,0.583,0.86,0.898,1.073
	c0.315,0.213,0.66,0.319,1.034,0.319c0.348,0,0.677-0.106,0.985-0.319C572.498,98.207,572.795,97.849,573.078,97.347z"/>
<path fill="#999999" d="M582.936,86.31v14.149h-1.972V90.311l-2.436,2.455l-1.353-1.392l3.788-3.77V86.31H582.936z"/>
<path fill="#999999" d="M593.663,93.326v0.116c0,2.036-0.406,3.73-1.218,5.083c-0.863,1.405-2.036,2.107-3.519,2.107
	c-0.734,0-1.395-0.177-1.98-0.532c-0.587-0.354-1.086-0.879-1.498-1.575c-0.812-1.353-1.218-3.047-1.218-5.083v-0.116
	c0-2.036,0.405-3.73,1.218-5.083c0.862-1.404,2.035-2.107,3.518-2.107c0.734,0,1.395,0.177,1.981,0.531
	c0.586,0.355,1.085,0.88,1.498,1.576C593.257,89.596,593.663,91.291,593.663,93.326z M590.841,97.347
	c0.271-0.502,0.479-1.076,0.628-1.72c0.148-0.644,0.223-1.366,0.223-2.165v-0.154c0-0.799-0.074-1.521-0.223-2.165
	s-0.357-1.218-0.628-1.72c-0.258-0.503-0.548-0.86-0.87-1.073c-0.322-0.213-0.67-0.319-1.044-0.319
	c-0.348,0-0.676,0.106-0.985,0.319c-0.31,0.212-0.605,0.57-0.89,1.073c-0.271,0.502-0.479,1.076-0.628,1.72
	s-0.222,1.366-0.222,2.165v0.154c0,1.56,0.276,2.854,0.831,3.885c0.283,0.502,0.583,0.86,0.898,1.073
	c0.315,0.213,0.66,0.319,1.034,0.319c0.348,0,0.677-0.106,0.985-0.319C590.261,98.207,590.558,97.849,590.841,97.347z"/>
<path fill="#999999" d="M600.698,86.31v14.149h-1.972V90.311l-2.436,2.455l-1.353-1.392l3.788-3.77V86.31H600.698z"/>
<path fill="#999999" d="M607.831,86.31v14.149h-1.972V90.311l-2.436,2.455l-1.353-1.392l3.788-3.77V86.31H607.831z"/>
<path fill="#999999" d="M618.559,93.326v0.116c0,2.036-0.406,3.73-1.218,5.083c-0.863,1.405-2.036,2.107-3.519,2.107
	c-0.734,0-1.395-0.177-1.98-0.532c-0.587-0.354-1.086-0.879-1.498-1.575c-0.812-1.353-1.218-3.047-1.218-5.083v-0.116
	c0-2.036,0.405-3.73,1.218-5.083c0.862-1.404,2.035-2.107,3.518-2.107c0.734,0,1.395,0.177,1.981,0.531
	c0.586,0.355,1.085,0.88,1.498,1.576C618.152,89.596,618.559,91.291,618.559,93.326z M615.736,97.347
	c0.271-0.502,0.479-1.076,0.628-1.72c0.148-0.644,0.223-1.366,0.223-2.165v-0.154c0-0.799-0.074-1.521-0.223-2.165
	s-0.357-1.218-0.628-1.72c-0.258-0.503-0.548-0.86-0.87-1.073c-0.322-0.213-0.67-0.319-1.044-0.319
	c-0.348,0-0.676,0.106-0.985,0.319c-0.31,0.212-0.605,0.57-0.89,1.073c-0.271,0.502-0.479,1.076-0.628,1.72
	s-0.222,1.366-0.222,2.165v0.154c0,1.56,0.276,2.854,0.831,3.885c0.283,0.502,0.583,0.86,0.898,1.073
	c0.315,0.213,0.66,0.319,1.034,0.319c0.348,0,0.677-0.106,0.985-0.319C615.156,98.207,615.453,97.849,615.736,97.347z"/>
<path fill="#999999" d="M625.594,86.31v14.149h-1.972V90.311l-2.436,2.455l-1.353-1.392l3.788-3.77V86.31H625.594z"/>
<path fill="#999999" d="M636.322,93.326v0.116c0,2.036-0.406,3.73-1.218,5.083c-0.863,1.405-2.036,2.107-3.519,2.107
	c-0.734,0-1.395-0.177-1.98-0.532c-0.587-0.354-1.086-0.879-1.498-1.575c-0.812-1.353-1.218-3.047-1.218-5.083v-0.116
	c0-2.036,0.405-3.73,1.218-5.083c0.862-1.404,2.035-2.107,3.518-2.107c0.734,0,1.395,0.177,1.981,0.531
	c0.586,0.355,1.085,0.88,1.498,1.576C635.916,89.596,636.322,91.291,636.322,93.326z M633.5,97.347
	c0.271-0.502,0.479-1.076,0.628-1.72c0.148-0.644,0.223-1.366,0.223-2.165v-0.154c0-0.799-0.074-1.521-0.223-2.165
	s-0.357-1.218-0.628-1.72c-0.258-0.503-0.548-0.86-0.87-1.073c-0.322-0.213-0.67-0.319-1.044-0.319
	c-0.348,0-0.676,0.106-0.985,0.319c-0.31,0.212-0.605,0.57-0.89,1.073c-0.271,0.502-0.479,1.076-0.628,1.72
	s-0.222,1.366-0.222,2.165v0.154c0,1.56,0.276,2.854,0.831,3.885c0.283,0.502,0.583,0.86,0.898,1.073
	c0.315,0.213,0.66,0.319,1.034,0.319c0.348,0,0.677-0.106,0.985-0.319C632.92,98.207,633.217,97.849,633.5,97.347z"/>
<path fill="#999999" d="M643.357,86.31v14.149h-1.972V90.311l-2.436,2.455l-1.353-1.392l3.788-3.77V86.31H643.357z"/>
<path fill="#999999" d="M654.086,93.326v0.116c0,2.036-0.406,3.73-1.218,5.083c-0.863,1.405-2.036,2.107-3.519,2.107
	c-0.734,0-1.395-0.177-1.98-0.532c-0.587-0.354-1.086-0.879-1.498-1.575c-0.812-1.353-1.218-3.047-1.218-5.083v-0.116
	c0-2.036,0.405-3.73,1.218-5.083c0.862-1.404,2.035-2.107,3.518-2.107c0.734,0,1.395,0.177,1.981,0.531
	c0.586,0.355,1.085,0.88,1.498,1.576C653.68,89.596,654.086,91.291,654.086,93.326z M651.264,97.347
	c0.271-0.502,0.479-1.076,0.628-1.72c0.148-0.644,0.223-1.366,0.223-2.165v-0.154c0-0.799-0.074-1.521-0.223-2.165
	s-0.357-1.218-0.628-1.72c-0.258-0.503-0.548-0.86-0.87-1.073c-0.322-0.213-0.67-0.319-1.044-0.319
	c-0.348,0-0.676,0.106-0.985,0.319c-0.31,0.212-0.605,0.57-0.89,1.073c-0.271,0.502-0.479,1.076-0.628,1.72
	s-0.222,1.366-0.222,2.165v0.154c0,1.56,0.276,2.854,0.831,3.885c0.283,0.502,0.583,0.86,0.898,1.073
	c0.315,0.213,0.66,0.319,1.034,0.319c0.348,0,0.677-0.106,0.985-0.319C650.684,98.207,650.98,97.849,651.264,97.347z"/>
<path fill="#999999" d="M565.172,109.505v14.149H563.2v-10.148l-2.436,2.455l-1.353-1.392l3.788-3.77v-1.295H565.172z"/>
<path fill="#999999" d="M575.9,116.521v0.116c0,2.036-0.406,3.73-1.218,5.083c-0.863,1.405-2.036,2.107-3.519,2.107
	c-0.734,0-1.395-0.178-1.98-0.531c-0.587-0.354-1.086-0.88-1.498-1.576c-0.812-1.353-1.218-3.047-1.218-5.083v-0.116
	c0-2.035,0.405-3.73,1.218-5.084c0.862-1.404,2.035-2.106,3.518-2.106c0.734,0,1.395,0.177,1.981,0.531
	c0.586,0.354,1.085,0.88,1.498,1.575C575.494,112.791,575.9,114.486,575.9,116.521z M573.078,120.542
	c0.271-0.503,0.479-1.075,0.628-1.72s0.223-1.366,0.223-2.166v-0.154c0-0.799-0.074-1.52-0.223-2.164s-0.357-1.219-0.628-1.721
	c-0.258-0.503-0.548-0.86-0.87-1.072c-0.322-0.213-0.67-0.32-1.044-0.32c-0.348,0-0.676,0.107-0.985,0.32
	c-0.31,0.212-0.605,0.569-0.89,1.072c-0.271,0.502-0.479,1.076-0.628,1.721s-0.222,1.365-0.222,2.164v0.154
	c0,1.561,0.276,2.855,0.831,3.886c0.283,0.503,0.583,0.86,0.898,1.073s0.66,0.318,1.034,0.318c0.348,0,0.677-0.105,0.985-0.318
	C572.498,121.402,572.795,121.045,573.078,120.542z"/>
<path fill="#999999" d="M582.936,109.505v14.149h-1.972v-10.148l-2.436,2.455l-1.353-1.392l3.788-3.77v-1.295H582.936z"/>
<path fill="#999999" d="M593.663,116.521v0.116c0,2.036-0.406,3.73-1.218,5.083c-0.863,1.405-2.036,2.107-3.519,2.107
	c-0.734,0-1.395-0.178-1.98-0.531c-0.587-0.354-1.086-0.88-1.498-1.576c-0.812-1.353-1.218-3.047-1.218-5.083v-0.116
	c0-2.035,0.405-3.73,1.218-5.084c0.862-1.404,2.035-2.106,3.518-2.106c0.734,0,1.395,0.177,1.981,0.531
	c0.586,0.354,1.085,0.88,1.498,1.575C593.257,112.791,593.663,114.486,593.663,116.521z M590.841,120.542
	c0.271-0.503,0.479-1.075,0.628-1.72s0.223-1.366,0.223-2.166v-0.154c0-0.799-0.074-1.52-0.223-2.164s-0.357-1.219-0.628-1.721
	c-0.258-0.503-0.548-0.86-0.87-1.072c-0.322-0.213-0.67-0.32-1.044-0.32c-0.348,0-0.676,0.107-0.985,0.32
	c-0.31,0.212-0.605,0.569-0.89,1.072c-0.271,0.502-0.479,1.076-0.628,1.721s-0.222,1.365-0.222,2.164v0.154
	c0,1.561,0.276,2.855,0.831,3.886c0.283,0.503,0.583,0.86,0.898,1.073s0.66,0.318,1.034,0.318c0.348,0,0.677-0.105,0.985-0.318
	C590.261,121.402,590.558,121.045,590.841,120.542z"/>
<path fill="#999999" d="M600.698,109.505v14.149h-1.972v-10.148l-2.436,2.455l-1.353-1.392l3.788-3.77v-1.295H600.698z"/>
<path fill="#999999" d="M607.831,109.505v14.149h-1.972v-10.148l-2.436,2.455l-1.353-1.392l3.788-3.77v-1.295H607.831z"/>
<path fill="#999999" d="M618.559,116.521v0.116c0,2.036-0.406,3.73-1.218,5.083c-0.863,1.405-2.036,2.107-3.519,2.107
	c-0.734,0-1.395-0.178-1.98-0.531c-0.587-0.354-1.086-0.88-1.498-1.576c-0.812-1.353-1.218-3.047-1.218-5.083v-0.116
	c0-2.035,0.405-3.73,1.218-5.084c0.862-1.404,2.035-2.106,3.518-2.106c0.734,0,1.395,0.177,1.981,0.531
	c0.586,0.354,1.085,0.88,1.498,1.575C618.152,112.791,618.559,114.486,618.559,116.521z M615.736,120.542
	c0.271-0.503,0.479-1.075,0.628-1.72s0.223-1.366,0.223-2.166v-0.154c0-0.799-0.074-1.52-0.223-2.164s-0.357-1.219-0.628-1.721
	c-0.258-0.503-0.548-0.86-0.87-1.072c-0.322-0.213-0.67-0.32-1.044-0.32c-0.348,0-0.676,0.107-0.985,0.32
	c-0.31,0.212-0.605,0.569-0.89,1.072c-0.271,0.502-0.479,1.076-0.628,1.721s-0.222,1.365-0.222,2.164v0.154
	c0,1.561,0.276,2.855,0.831,3.886c0.283,0.503,0.583,0.86,0.898,1.073s0.66,0.318,1.034,0.318c0.348,0,0.677-0.105,0.985-0.318
	C615.156,121.402,615.453,121.045,615.736,120.542z"/>
<path fill="#999999" d="M625.594,109.505v14.149h-1.972v-10.148l-2.436,2.455l-1.353-1.392l3.788-3.77v-1.295H625.594z"/>
<path fill="#999999" d="M636.322,116.521v0.116c0,2.036-0.406,3.73-1.218,5.083c-0.863,1.405-2.036,2.107-3.519,2.107
	c-0.734,0-1.395-0.178-1.98-0.531c-0.587-0.354-1.086-0.88-1.498-1.576c-0.812-1.353-1.218-3.047-1.218-5.083v-0.116
	c0-2.035,0.405-3.73,1.218-5.084c0.862-1.404,2.035-2.106,3.518-2.106c0.734,0,1.395,0.177,1.981,0.531
	c0.586,0.354,1.085,0.88,1.498,1.575C635.916,112.791,636.322,114.486,636.322,116.521z M633.5,120.542
	c0.271-0.503,0.479-1.075,0.628-1.72s0.223-1.366,0.223-2.166v-0.154c0-0.799-0.074-1.52-0.223-2.164s-0.357-1.219-0.628-1.721
	c-0.258-0.503-0.548-0.86-0.87-1.072c-0.322-0.213-0.67-0.32-1.044-0.32c-0.348,0-0.676,0.107-0.985,0.32
	c-0.31,0.212-0.605,0.569-0.89,1.072c-0.271,0.502-0.479,1.076-0.628,1.721s-0.222,1.365-0.222,2.164v0.154
	c0,1.561,0.276,2.855,0.831,3.886c0.283,0.503,0.583,0.86,0.898,1.073s0.66,0.318,1.034,0.318c0.348,0,0.677-0.105,0.985-0.318
	C632.92,121.402,633.217,121.045,633.5,120.542z"/>
<path fill="#999999" d="M558.137,139.717v0.116c0,2.036-0.406,3.73-1.218,5.083c-0.863,1.405-2.036,2.107-3.519,2.107
	c-0.734,0-1.395-0.178-1.98-0.532c-0.587-0.354-1.086-0.879-1.498-1.575c-0.812-1.353-1.218-3.047-1.218-5.083v-0.116
	c0-2.036,0.405-3.73,1.218-5.084c0.862-1.404,2.035-2.106,3.518-2.106c0.734,0,1.395,0.177,1.981,0.531
	c0.586,0.354,1.085,0.88,1.498,1.575C557.73,135.986,558.137,137.681,558.137,139.717z M555.314,143.737
	c0.271-0.503,0.479-1.076,0.628-1.721c0.148-0.644,0.223-1.365,0.223-2.165v-0.154c0-0.799-0.074-1.521-0.223-2.165
	s-0.357-1.218-0.628-1.72c-0.258-0.503-0.548-0.86-0.87-1.072c-0.322-0.213-0.67-0.32-1.044-0.32c-0.348,0-0.676,0.107-0.985,0.32
	c-0.31,0.212-0.605,0.569-0.89,1.072c-0.271,0.502-0.479,1.075-0.628,1.72s-0.222,1.366-0.222,2.165v0.154
	c0,1.56,0.276,2.854,0.831,3.886c0.283,0.502,0.583,0.86,0.898,1.072c0.315,0.213,0.66,0.319,1.034,0.319
	c0.348,0,0.677-0.106,0.985-0.319C554.734,144.598,555.031,144.239,555.314,143.737z"/>
<path fill="#999999" d="M565.172,132.7v14.149H563.2v-10.148l-2.436,2.455l-1.353-1.392l3.788-3.77V132.7H565.172z"/>
<path fill="#999999" d="M575.9,139.717v0.116c0,2.036-0.406,3.73-1.218,5.083c-0.863,1.405-2.036,2.107-3.519,2.107
	c-0.734,0-1.395-0.178-1.98-0.532c-0.587-0.354-1.086-0.879-1.498-1.575c-0.812-1.353-1.218-3.047-1.218-5.083v-0.116
	c0-2.036,0.405-3.73,1.218-5.084c0.862-1.404,2.035-2.106,3.518-2.106c0.734,0,1.395,0.177,1.981,0.531
	c0.586,0.354,1.085,0.88,1.498,1.575C575.494,135.986,575.9,137.681,575.9,139.717z M573.078,143.737
	c0.271-0.503,0.479-1.076,0.628-1.721c0.148-0.644,0.223-1.365,0.223-2.165v-0.154c0-0.799-0.074-1.521-0.223-2.165
	s-0.357-1.218-0.628-1.72c-0.258-0.503-0.548-0.86-0.87-1.072c-0.322-0.213-0.67-0.32-1.044-0.32c-0.348,0-0.676,0.107-0.985,0.32
	c-0.31,0.212-0.605,0.569-0.89,1.072c-0.271,0.502-0.479,1.075-0.628,1.72s-0.222,1.366-0.222,2.165v0.154
	c0,1.56,0.276,2.854,0.831,3.886c0.283,0.502,0.583,0.86,0.898,1.072c0.315,0.213,0.66,0.319,1.034,0.319
	c0.348,0,0.677-0.106,0.985-0.319C572.498,144.598,572.795,144.239,573.078,143.737z"/>
<path fill="#999999" d="M582.936,132.7v14.149h-1.972v-10.148l-2.436,2.455l-1.353-1.392l3.788-3.77V132.7H582.936z"/>
<path fill="#999999" d="M593.663,139.717v0.116c0,2.036-0.406,3.73-1.218,5.083c-0.863,1.405-2.036,2.107-3.519,2.107
	c-0.734,0-1.395-0.178-1.98-0.532c-0.587-0.354-1.086-0.879-1.498-1.575c-0.812-1.353-1.218-3.047-1.218-5.083v-0.116
	c0-2.036,0.405-3.73,1.218-5.084c0.862-1.404,2.035-2.106,3.518-2.106c0.734,0,1.395,0.177,1.981,0.531
	c0.586,0.354,1.085,0.88,1.498,1.575C593.257,135.986,593.663,137.681,593.663,139.717z M590.841,143.737
	c0.271-0.503,0.479-1.076,0.628-1.721c0.148-0.644,0.223-1.365,0.223-2.165v-0.154c0-0.799-0.074-1.521-0.223-2.165
	s-0.357-1.218-0.628-1.72c-0.258-0.503-0.548-0.86-0.87-1.072c-0.322-0.213-0.67-0.32-1.044-0.32c-0.348,0-0.676,0.107-0.985,0.32
	c-0.31,0.212-0.605,0.569-0.89,1.072c-0.271,0.502-0.479,1.075-0.628,1.72s-0.222,1.366-0.222,2.165v0.154
	c0,1.56,0.276,2.854,0.831,3.886c0.283,0.502,0.583,0.86,0.898,1.072c0.315,0.213,0.66,0.319,1.034,0.319
	c0.348,0,0.677-0.106,0.985-0.319C590.261,144.598,590.558,144.239,590.841,143.737z"/>
<path fill="#999999" d="M600.698,132.7v14.149h-1.972v-10.148l-2.436,2.455l-1.353-1.392l3.788-3.77V132.7H600.698z"/>
<path fill="#999999" d="M607.831,132.7v14.149h-1.972v-10.148l-2.436,2.455l-1.353-1.392l3.788-3.77V132.7H607.831z"/>
<path fill="#999999" d="M618.559,139.717v0.116c0,2.036-0.406,3.73-1.218,5.083c-0.863,1.405-2.036,2.107-3.519,2.107
	c-0.734,0-1.395-0.178-1.98-0.532c-0.587-0.354-1.086-0.879-1.498-1.575c-0.812-1.353-1.218-3.047-1.218-5.083v-0.116
	c0-2.036,0.405-3.73,1.218-5.084c0.862-1.404,2.035-2.106,3.518-2.106c0.734,0,1.395,0.177,1.981,0.531
	c0.586,0.354,1.085,0.88,1.498,1.575C618.152,135.986,618.559,137.681,618.559,139.717z M615.736,143.737
	c0.271-0.503,0.479-1.076,0.628-1.721c0.148-0.644,0.223-1.365,0.223-2.165v-0.154c0-0.799-0.074-1.521-0.223-2.165
	s-0.357-1.218-0.628-1.72c-0.258-0.503-0.548-0.86-0.87-1.072c-0.322-0.213-0.67-0.32-1.044-0.32c-0.348,0-0.676,0.107-0.985,0.32
	c-0.31,0.212-0.605,0.569-0.89,1.072c-0.271,0.502-0.479,1.075-0.628,1.72s-0.222,1.366-0.222,2.165v0.154
	c0,1.56,0.276,2.854,0.831,3.886c0.283,0.502,0.583,0.86,0.898,1.072c0.315,0.213,0.66,0.319,1.034,0.319
	c0.348,0,0.677-0.106,0.985-0.319C615.156,144.598,615.453,144.239,615.736,143.737z"/>
<path fill="#999999" d="M625.594,132.7v14.149h-1.972v-10.148l-2.436,2.455l-1.353-1.392l3.788-3.77V132.7H625.594z"/>
<path fill="#999999" d="M636.322,139.717v0.116c0,2.036-0.406,3.73-1.218,5.083c-0.863,1.405-2.036,2.107-3.519,2.107
	c-0.734,0-1.395-0.178-1.98-0.532c-0.587-0.354-1.086-0.879-1.498-1.575c-0.812-1.353-1.218-3.047-1.218-5.083v-0.116
	c0-2.036,0.405-3.73,1.218-5.084c0.862-1.404,2.035-2.106,3.518-2.106c0.734,0,1.395,0.177,1.981,0.531
	c0.586,0.354,1.085,0.88,1.498,1.575C635.916,135.986,636.322,137.681,636.322,139.717z M633.5,143.737
	c0.271-0.503,0.479-1.076,0.628-1.721c0.148-0.644,0.223-1.365,0.223-2.165v-0.154c0-0.799-0.074-1.521-0.223-2.165
	s-0.357-1.218-0.628-1.72c-0.258-0.503-0.548-0.86-0.87-1.072c-0.322-0.213-0.67-0.32-1.044-0.32c-0.348,0-0.676,0.107-0.985,0.32
	c-0.31,0.212-0.605,0.569-0.89,1.072c-0.271,0.502-0.479,1.075-0.628,1.72s-0.222,1.366-0.222,2.165v0.154
	c0,1.56,0.276,2.854,0.831,3.886c0.283,0.502,0.583,0.86,0.898,1.072c0.315,0.213,0.66,0.319,1.034,0.319
	c0.348,0,0.677-0.106,0.985-0.319C632.92,144.598,633.217,144.239,633.5,143.737z"/>
<path fill="#999999" d="M643.357,132.7v14.149h-1.972v-10.148l-2.436,2.455l-1.353-1.392l3.788-3.77V132.7H643.357z"/>
<path fill="#999999" d="M654.086,139.717v0.116c0,2.036-0.406,3.73-1.218,5.083c-0.863,1.405-2.036,2.107-3.519,2.107
	c-0.734,0-1.395-0.178-1.98-0.532c-0.587-0.354-1.086-0.879-1.498-1.575c-0.812-1.353-1.218-3.047-1.218-5.083v-0.116
	c0-2.036,0.405-3.73,1.218-5.084c0.862-1.404,2.035-2.106,3.518-2.106c0.734,0,1.395,0.177,1.981,0.531
	c0.586,0.354,1.085,0.88,1.498,1.575C653.68,135.986,654.086,137.681,654.086,139.717z M651.264,143.737
	c0.271-0.503,0.479-1.076,0.628-1.721c0.148-0.644,0.223-1.365,0.223-2.165v-0.154c0-0.799-0.074-1.521-0.223-2.165
	s-0.357-1.218-0.628-1.72c-0.258-0.503-0.548-0.86-0.87-1.072c-0.322-0.213-0.67-0.32-1.044-0.32c-0.348,0-0.676,0.107-0.985,0.32
	c-0.31,0.212-0.605,0.569-0.89,1.072c-0.271,0.502-0.479,1.075-0.628,1.72s-0.222,1.366-0.222,2.165v0.154
	c0,1.56,0.276,2.854,0.831,3.886c0.283,0.502,0.583,0.86,0.898,1.072c0.315,0.213,0.66,0.319,1.034,0.319
	c0.348,0,0.677-0.106,0.985-0.319C650.684,144.598,650.98,144.239,651.264,143.737z"/>
<path fill="#999999" d="M546.926,162.912v0.116c0,2.036-0.406,3.73-1.218,5.083c-0.863,1.405-2.036,2.107-3.519,2.107
	c-0.734,0-1.395-0.178-1.98-0.532c-0.587-0.354-1.086-0.879-1.498-1.575c-0.812-1.353-1.218-3.047-1.218-5.083v-0.116
	c0-2.036,0.405-3.73,1.218-5.084c0.862-1.404,2.035-2.106,3.518-2.106c0.734,0,1.395,0.177,1.981,0.531
	c0.586,0.354,1.085,0.88,1.498,1.575C546.52,159.182,546.926,160.876,546.926,162.912z M544.104,166.933
	c0.271-0.503,0.479-1.076,0.628-1.721c0.148-0.644,0.223-1.365,0.223-2.165v-0.154c0-0.799-0.074-1.521-0.223-2.165
	s-0.357-1.218-0.628-1.72c-0.258-0.503-0.548-0.86-0.87-1.073s-0.67-0.319-1.044-0.319c-0.348,0-0.676,0.106-0.985,0.319
	s-0.605,0.57-0.89,1.073c-0.271,0.502-0.479,1.075-0.628,1.72s-0.222,1.366-0.222,2.165v0.154c0,1.56,0.276,2.854,0.831,3.886
	c0.283,0.502,0.583,0.86,0.898,1.072c0.315,0.213,0.66,0.319,1.034,0.319c0.348,0,0.677-0.106,0.985-0.319
	C543.523,167.793,543.82,167.435,544.104,166.933z"/>
<path fill="#999999" d="M558.137,162.912v0.116c0,2.036-0.406,3.73-1.218,5.083c-0.863,1.405-2.036,2.107-3.519,2.107
	c-0.734,0-1.395-0.178-1.98-0.532c-0.587-0.354-1.086-0.879-1.498-1.575c-0.812-1.353-1.218-3.047-1.218-5.083v-0.116
	c0-2.036,0.405-3.73,1.218-5.084c0.862-1.404,2.035-2.106,3.518-2.106c0.734,0,1.395,0.177,1.981,0.531
	c0.586,0.354,1.085,0.88,1.498,1.575C557.73,159.182,558.137,160.876,558.137,162.912z M555.314,166.933
	c0.271-0.503,0.479-1.076,0.628-1.721c0.148-0.644,0.223-1.365,0.223-2.165v-0.154c0-0.799-0.074-1.521-0.223-2.165
	s-0.357-1.218-0.628-1.72c-0.258-0.503-0.548-0.86-0.87-1.073s-0.67-0.319-1.044-0.319c-0.348,0-0.676,0.106-0.985,0.319
	s-0.605,0.57-0.89,1.073c-0.271,0.502-0.479,1.075-0.628,1.72s-0.222,1.366-0.222,2.165v0.154c0,1.56,0.276,2.854,0.831,3.886
	c0.283,0.502,0.583,0.86,0.898,1.072c0.315,0.213,0.66,0.319,1.034,0.319c0.348,0,0.677-0.106,0.985-0.319
	C554.734,167.793,555.031,167.435,555.314,166.933z"/>
<path fill="#999999" d="M565.172,155.896v14.149H563.2v-10.148l-2.436,2.455l-1.353-1.392l3.788-3.77v-1.295H565.172z"/>
<path fill="#999999" d="M575.9,162.912v0.116c0,2.036-0.406,3.73-1.218,5.083c-0.863,1.405-2.036,2.107-3.519,2.107
	c-0.734,0-1.395-0.178-1.98-0.532c-0.587-0.354-1.086-0.879-1.498-1.575c-0.812-1.353-1.218-3.047-1.218-5.083v-0.116
	c0-2.036,0.405-3.73,1.218-5.084c0.862-1.404,2.035-2.106,3.518-2.106c0.734,0,1.395,0.177,1.981,0.531
	c0.586,0.354,1.085,0.88,1.498,1.575C575.494,159.182,575.9,160.876,575.9,162.912z M573.078,166.933
	c0.271-0.503,0.479-1.076,0.628-1.721c0.148-0.644,0.223-1.365,0.223-2.165v-0.154c0-0.799-0.074-1.521-0.223-2.165
	s-0.357-1.218-0.628-1.72c-0.258-0.503-0.548-0.86-0.87-1.073s-0.67-0.319-1.044-0.319c-0.348,0-0.676,0.106-0.985,0.319
	s-0.605,0.57-0.89,1.073c-0.271,0.502-0.479,1.075-0.628,1.72s-0.222,1.366-0.222,2.165v0.154c0,1.56,0.276,2.854,0.831,3.886
	c0.283,0.502,0.583,0.86,0.898,1.072c0.315,0.213,0.66,0.319,1.034,0.319c0.348,0,0.677-0.106,0.985-0.319
	C572.498,167.793,572.795,167.435,573.078,166.933z"/>
<path fill="#999999" d="M582.936,155.896v14.149h-1.972v-10.148l-2.436,2.455l-1.353-1.392l3.788-3.77v-1.295H582.936z"/>
<path fill="#999999" d="M593.663,162.912v0.116c0,2.036-0.406,3.73-1.218,5.083c-0.863,1.405-2.036,2.107-3.519,2.107
	c-0.734,0-1.395-0.178-1.98-0.532c-0.587-0.354-1.086-0.879-1.498-1.575c-0.812-1.353-1.218-3.047-1.218-5.083v-0.116
	c0-2.036,0.405-3.73,1.218-5.084c0.862-1.404,2.035-2.106,3.518-2.106c0.734,0,1.395,0.177,1.981,0.531
	c0.586,0.354,1.085,0.88,1.498,1.575C593.257,159.182,593.663,160.876,593.663,162.912z M590.841,166.933
	c0.271-0.503,0.479-1.076,0.628-1.721c0.148-0.644,0.223-1.365,0.223-2.165v-0.154c0-0.799-0.074-1.521-0.223-2.165
	s-0.357-1.218-0.628-1.72c-0.258-0.503-0.548-0.86-0.87-1.073s-0.67-0.319-1.044-0.319c-0.348,0-0.676,0.106-0.985,0.319
	s-0.605,0.57-0.89,1.073c-0.271,0.502-0.479,1.075-0.628,1.72s-0.222,1.366-0.222,2.165v0.154c0,1.56,0.276,2.854,0.831,3.886
	c0.283,0.502,0.583,0.86,0.898,1.072c0.315,0.213,0.66,0.319,1.034,0.319c0.348,0,0.677-0.106,0.985-0.319
	C590.261,167.793,590.558,167.435,590.841,166.933z"/>
<path fill="#999999" d="M600.698,155.896v14.149h-1.972v-10.148l-2.436,2.455l-1.353-1.392l3.788-3.77v-1.295H600.698z"/>
<path fill="#999999" d="M607.831,155.896v14.149h-1.972v-10.148l-2.436,2.455l-1.353-1.392l3.788-3.77v-1.295H607.831z"/>
<path fill="#999999" d="M546.926,186.107v0.116c0,2.036-0.406,3.73-1.218,5.083c-0.863,1.405-2.036,2.107-3.519,2.107
	c-0.734,0-1.395-0.178-1.98-0.532c-0.587-0.354-1.086-0.879-1.498-1.575c-0.812-1.353-1.218-3.047-1.218-5.083v-0.116
	c0-2.036,0.405-3.73,1.218-5.084c0.862-1.404,2.035-2.106,3.518-2.106c0.734,0,1.395,0.177,1.981,0.531
	c0.586,0.354,1.085,0.88,1.498,1.575C546.52,182.377,546.926,184.071,546.926,186.107z M544.104,190.128
	c0.271-0.503,0.479-1.076,0.628-1.721c0.148-0.644,0.223-1.365,0.223-2.165v-0.154c0-0.799-0.074-1.521-0.223-2.165
	s-0.357-1.218-0.628-1.72c-0.258-0.503-0.548-0.86-0.87-1.073s-0.67-0.319-1.044-0.319c-0.348,0-0.676,0.106-0.985,0.319
	s-0.605,0.57-0.89,1.073c-0.271,0.502-0.479,1.075-0.628,1.72s-0.222,1.366-0.222,2.165v0.154c0,1.56,0.276,2.854,0.831,3.886
	c0.283,0.502,0.583,0.86,0.898,1.072c0.315,0.213,0.66,0.319,1.034,0.319c0.348,0,0.677-0.106,0.985-0.319
	C543.523,190.988,543.82,190.63,544.104,190.128z"/>
<path fill="#999999" d="M558.137,186.107v0.116c0,2.036-0.406,3.73-1.218,5.083c-0.863,1.405-2.036,2.107-3.519,2.107
	c-0.734,0-1.395-0.178-1.98-0.532c-0.587-0.354-1.086-0.879-1.498-1.575c-0.812-1.353-1.218-3.047-1.218-5.083v-0.116
	c0-2.036,0.405-3.73,1.218-5.084c0.862-1.404,2.035-2.106,3.518-2.106c0.734,0,1.395,0.177,1.981,0.531
	c0.586,0.354,1.085,0.88,1.498,1.575C557.73,182.377,558.137,184.071,558.137,186.107z M555.314,190.128
	c0.271-0.503,0.479-1.076,0.628-1.721c0.148-0.644,0.223-1.365,0.223-2.165v-0.154c0-0.799-0.074-1.521-0.223-2.165
	s-0.357-1.218-0.628-1.72c-0.258-0.503-0.548-0.86-0.87-1.073s-0.67-0.319-1.044-0.319c-0.348,0-0.676,0.106-0.985,0.319
	s-0.605,0.57-0.89,1.073c-0.271,0.502-0.479,1.075-0.628,1.72s-0.222,1.366-0.222,2.165v0.154c0,1.56,0.276,2.854,0.831,3.886
	c0.283,0.502,0.583,0.86,0.898,1.072c0.315,0.213,0.66,0.319,1.034,0.319c0.348,0,0.677-0.106,0.985-0.319
	C554.734,190.988,555.031,190.63,555.314,190.128z"/>
<path fill="#999999" d="M565.172,179.091v14.149H563.2v-10.148l-2.436,2.455l-1.353-1.392l3.788-3.77v-1.295H565.172z"/>
<path fill="#999999" d="M575.9,186.107v0.116c0,2.036-0.406,3.73-1.218,5.083c-0.863,1.405-2.036,2.107-3.519,2.107
	c-0.734,0-1.395-0.178-1.98-0.532c-0.587-0.354-1.086-0.879-1.498-1.575c-0.812-1.353-1.218-3.047-1.218-5.083v-0.116
	c0-2.036,0.405-3.73,1.218-5.084c0.862-1.404,2.035-2.106,3.518-2.106c0.734,0,1.395,0.177,1.981,0.531
	c0.586,0.354,1.085,0.88,1.498,1.575C575.494,182.377,575.9,184.071,575.9,186.107z M573.078,190.128
	c0.271-0.503,0.479-1.076,0.628-1.721c0.148-0.644,0.223-1.365,0.223-2.165v-0.154c0-0.799-0.074-1.521-0.223-2.165
	s-0.357-1.218-0.628-1.72c-0.258-0.503-0.548-0.86-0.87-1.073s-0.67-0.319-1.044-0.319c-0.348,0-0.676,0.106-0.985,0.319
	s-0.605,0.57-0.89,1.073c-0.271,0.502-0.479,1.075-0.628,1.72s-0.222,1.366-0.222,2.165v0.154c0,1.56,0.276,2.854,0.831,3.886
	c0.283,0.502,0.583,0.86,0.898,1.072c0.315,0.213,0.66,0.319,1.034,0.319c0.348,0,0.677-0.106,0.985-0.319
	C572.498,190.988,572.795,190.63,573.078,190.128z"/>
<path fill="#999999" d="M582.936,179.091v14.149h-1.972v-10.148l-2.436,2.455l-1.353-1.392l3.788-3.77v-1.295H582.936z"/>
<path fill="#999999" d="M593.663,186.107v0.116c0,2.036-0.406,3.73-1.218,5.083c-0.863,1.405-2.036,2.107-3.519,2.107
	c-0.734,0-1.395-0.178-1.98-0.532c-0.587-0.354-1.086-0.879-1.498-1.575c-0.812-1.353-1.218-3.047-1.218-5.083v-0.116
	c0-2.036,0.405-3.73,1.218-5.084c0.862-1.404,2.035-2.106,3.518-2.106c0.734,0,1.395,0.177,1.981,0.531
	c0.586,0.354,1.085,0.88,1.498,1.575C593.257,182.377,593.663,184.071,593.663,186.107z M590.841,190.128
	c0.271-0.503,0.479-1.076,0.628-1.721c0.148-0.644,0.223-1.365,0.223-2.165v-0.154c0-0.799-0.074-1.521-0.223-2.165
	s-0.357-1.218-0.628-1.72c-0.258-0.503-0.548-0.86-0.87-1.073s-0.67-0.319-1.044-0.319c-0.348,0-0.676,0.106-0.985,0.319
	s-0.605,0.57-0.89,1.073c-0.271,0.502-0.479,1.075-0.628,1.72s-0.222,1.366-0.222,2.165v0.154c0,1.56,0.276,2.854,0.831,3.886
	c0.283,0.502,0.583,0.86,0.898,1.072c0.315,0.213,0.66,0.319,1.034,0.319c0.348,0,0.677-0.106,0.985-0.319
	C590.261,190.988,590.558,190.63,590.841,190.128z"/>
<path fill="#999999" d="M600.698,179.091v14.149h-1.972v-10.148l-2.436,2.455l-1.353-1.392l3.788-3.77v-1.295H600.698z"/>
<path fill="#999999" d="M607.831,179.091v14.149h-1.972v-10.148l-2.436,2.455l-1.353-1.392l3.788-3.77v-1.295H607.831z"/>
<path fill="#999999" d="M618.559,186.107v0.116c0,2.036-0.406,3.73-1.218,5.083c-0.863,1.405-2.036,2.107-3.519,2.107
	c-0.734,0-1.395-0.178-1.98-0.532c-0.587-0.354-1.086-0.879-1.498-1.575c-0.812-1.353-1.218-3.047-1.218-5.083v-0.116
	c0-2.036,0.405-3.73,1.218-5.084c0.862-1.404,2.035-2.106,3.518-2.106c0.734,0,1.395,0.177,1.981,0.531
	c0.586,0.354,1.085,0.88,1.498,1.575C618.152,182.377,618.559,184.071,618.559,186.107z M615.736,190.128
	c0.271-0.503,0.479-1.076,0.628-1.721c0.148-0.644,0.223-1.365,0.223-2.165v-0.154c0-0.799-0.074-1.521-0.223-2.165
	s-0.357-1.218-0.628-1.72c-0.258-0.503-0.548-0.86-0.87-1.073s-0.67-0.319-1.044-0.319c-0.348,0-0.676,0.106-0.985,0.319
	s-0.605,0.57-0.89,1.073c-0.271,0.502-0.479,1.075-0.628,1.72s-0.222,1.366-0.222,2.165v0.154c0,1.56,0.276,2.854,0.831,3.886
	c0.283,0.502,0.583,0.86,0.898,1.072c0.315,0.213,0.66,0.319,1.034,0.319c0.348,0,0.677-0.106,0.985-0.319
	C615.156,190.988,615.453,190.63,615.736,190.128z"/>
<path fill="#999999" d="M625.594,179.091v14.149h-1.972v-10.148l-2.436,2.455l-1.353-1.392l3.788-3.77v-1.295H625.594z"/>
<path fill="#999999" d="M636.322,186.107v0.116c0,2.036-0.406,3.73-1.218,5.083c-0.863,1.405-2.036,2.107-3.519,2.107
	c-0.734,0-1.395-0.178-1.98-0.532c-0.587-0.354-1.086-0.879-1.498-1.575c-0.812-1.353-1.218-3.047-1.218-5.083v-0.116
	c0-2.036,0.405-3.73,1.218-5.084c0.862-1.404,2.035-2.106,3.518-2.106c0.734,0,1.395,0.177,1.981,0.531
	c0.586,0.354,1.085,0.88,1.498,1.575C635.916,182.377,636.322,184.071,636.322,186.107z M633.5,190.128
	c0.271-0.503,0.479-1.076,0.628-1.721c0.148-0.644,0.223-1.365,0.223-2.165v-0.154c0-0.799-0.074-1.521-0.223-2.165
	s-0.357-1.218-0.628-1.72c-0.258-0.503-0.548-0.86-0.87-1.073s-0.67-0.319-1.044-0.319c-0.348,0-0.676,0.106-0.985,0.319
	s-0.605,0.57-0.89,1.073c-0.271,0.502-0.479,1.075-0.628,1.72s-0.222,1.366-0.222,2.165v0.154c0,1.56,0.276,2.854,0.831,3.886
	c0.283,0.502,0.583,0.86,0.898,1.072c0.315,0.213,0.66,0.319,1.034,0.319c0.348,0,0.677-0.106,0.985-0.319
	C632.92,190.988,633.217,190.63,633.5,190.128z"/>
<path fill="#999999" d="M643.357,179.091v14.149h-1.972v-10.148l-2.436,2.455l-1.353-1.392l3.788-3.77v-1.295H643.357z"/>
<g>
	<path fill="#1F2351" d="M181.925,41.474l12.067,26.4h-3.909l-3.861-8.45h-10.787l-3.871,8.45h-3.938l12.103-26.4H181.925z
		 M176.974,56.052h7.7l-3.871-8.45L176.974,56.052z"/>
	<path fill="#1F2351" d="M209.32,55.839c1.055,1.195,1.577,2.84,1.577,4.942c0,2.032-0.765,3.774-2.293,5.228
		c-1.529,1.457-3.358,2.187-5.516,2.187c-1.5,0-2.913-0.288-4.219-0.859c-0.59-0.264-1.123-0.525-1.625-0.786
		c-0.494-0.264-0.987-0.585-1.461-0.973v-4.441c0.648,0.481,1.2,0.883,1.665,1.222c0.464,0.334,0.871,0.604,1.239,0.825
		c0.358,0.213,0.667,0.392,0.929,0.532c0.261,0.146,0.494,0.264,0.716,0.361c0.832,0.382,1.645,0.576,2.438,0.576
		c1.239,0,2.274-0.385,3.116-1.147c0.803-0.786,1.219-1.729,1.219-2.83c0-0.622-0.097-1.149-0.271-1.58
		c-0.184-0.423-0.445-0.796-0.803-1.105c-0.435-0.336-0.997-0.677-1.674-1.026c-0.677-0.341-1.519-0.682-2.525-1.016
		c-2.081-0.716-3.639-1.599-4.693-2.654c-0.571-0.595-0.997-1.29-1.268-2.078c-0.271-0.786-0.407-1.66-0.407-2.613
		c0-2.008,0.784-3.713,2.352-5.124c1.539-1.432,3.368-2.153,5.487-2.153c1.529,0,2.864,0.23,4.025,0.68
		c0.561,0.196,1.045,0.395,1.432,0.598c0.406,0.203,0.784,0.438,1.132,0.699l0.068,4.154c-0.465-0.288-0.881-0.532-1.229-0.738
		c-0.339-0.196-0.648-0.377-0.919-0.518c-0.261-0.143-0.503-0.266-0.726-0.373c-0.232-0.111-0.465-0.223-0.697-0.343
		c-0.793-0.404-1.751-0.61-2.874-0.61c-1.209,0-2.216,0.358-3.009,1.077c-0.813,0.789-1.22,1.65-1.22,2.576
		c0,0.576,0.087,1.048,0.262,1.42c0.164,0.368,0.377,0.672,0.639,0.912c0.696,0.62,1.935,1.263,3.725,1.933
		c1.268,0.453,2.361,0.924,3.261,1.415C208.082,54.7,208.797,55.242,209.32,55.839z"/>
	<path fill="#1F2351" d="M226.583,55.839c1.055,1.195,1.587,2.84,1.587,4.942c0,2.032-0.764,3.774-2.293,5.228
		c-1.539,1.457-3.377,2.187-5.525,2.187c-1.5,0-2.913-0.288-4.229-0.859c-0.571-0.264-1.113-0.525-1.606-0.786
		c-0.503-0.264-0.997-0.585-1.471-0.973v-4.441c0.648,0.481,1.2,0.883,1.665,1.222c0.464,0.334,0.88,0.604,1.239,0.825
		c0.358,0.213,0.667,0.392,0.929,0.532c0.261,0.146,0.503,0.264,0.716,0.361c0.832,0.382,1.645,0.576,2.438,0.576
		c1.248,0,2.284-0.385,3.116-1.147c0.813-0.786,1.219-1.729,1.219-2.83c0-0.622-0.087-1.149-0.271-1.58
		c-0.174-0.423-0.445-0.796-0.803-1.105c-0.435-0.336-0.987-0.677-1.664-1.026c-0.678-0.341-1.529-0.682-2.526-1.016
		c-2.071-0.716-3.648-1.599-4.693-2.654c-0.581-0.595-1.006-1.29-1.277-2.078c-0.281-0.786-0.416-1.66-0.416-2.613
		c0-2.008,0.793-3.713,2.371-5.124c1.529-1.432,3.358-2.153,5.477-2.153c1.539,0,2.874,0.23,4.016,0.68
		c0.571,0.196,1.055,0.395,1.452,0.598c0.396,0.203,0.764,0.438,1.123,0.699l0.077,4.154c-0.474-0.288-0.89-0.532-1.238-0.738
		c-0.349-0.196-0.648-0.377-0.91-0.518c-0.261-0.143-0.503-0.266-0.736-0.373c-0.222-0.111-0.455-0.223-0.696-0.343
		c-0.793-0.404-1.751-0.61-2.874-0.61c-1.21,0-2.216,0.358-3,1.077c-0.812,0.789-1.219,1.65-1.219,2.576
		c0,0.576,0.078,1.048,0.251,1.42c0.165,0.368,0.377,0.672,0.639,0.912c0.697,0.62,1.945,1.263,3.735,1.933
		c1.258,0.453,2.342,0.924,3.261,1.415C225.345,54.7,226.061,55.242,226.583,55.839z"/>
	<path fill="#1F2351" d="M254.491,45.161c2.68,2.605,4.016,5.806,4.016,9.602c0,3.774-1.335,6.965-4.016,9.565
		c-2.651,2.579-5.922,3.868-9.812,3.868c-3.938,0-7.229-1.275-9.851-3.834c-2.651-2.579-3.977-5.777-3.977-9.599
		c0-3.82,1.316-7.008,3.938-9.565c2.651-2.576,5.951-3.871,9.89-3.871C248.549,41.327,251.82,42.609,254.491,45.161z
		 M251.733,61.749c1.964-1.959,2.941-4.287,2.941-6.986c0-2.697-0.977-5.024-2.941-6.982c-1.926-1.935-4.296-2.905-7.054-2.905
		c-2.797,0-5.158,0.97-7.093,2.905c-1.935,1.933-2.903,4.263-2.903,6.982c0,2.746,0.948,5.075,2.864,6.986
		c1.926,1.936,4.316,2.903,7.132,2.903C247.437,64.652,249.807,63.685,251.733,61.749z"/>
	<path fill="#1F2351" d="M285.939,61.461v4.011c-0.812,0.481-1.587,0.874-2.332,1.186c-0.735,0.31-1.5,0.583-2.284,0.822
		c-0.842,0.262-1.645,0.448-2.399,0.557c-0.774,0.106-1.52,0.16-2.265,0.16c-4.103,0-7.5-1.255-10.17-3.762
		c-2.7-2.506-4.055-5.731-4.055-9.672c0-3.82,1.355-7.018,4.055-9.602c1.354-1.285,2.883-2.25,4.567-2.879
		c1.684-0.634,3.513-0.956,5.496-0.956c1.413,0,2.874,0.196,4.374,0.576c0.813,0.191,1.587,0.433,2.322,0.719
		c0.745,0.285,1.548,0.658,2.41,1.11v4.192c-1.229-0.692-2.216-1.212-2.98-1.558c-0.765-0.346-1.49-0.626-2.177-0.842
		c-1.413-0.431-2.835-0.648-4.268-0.648c-2.845,0-5.206,0.946-7.093,2.831c-1.906,1.86-2.864,4.214-2.864,7.057
		c0,2.939,0.929,5.315,2.796,7.132c1.877,1.838,4.306,2.758,7.267,2.758c1.626,0,3.145-0.256,4.548-0.752
		c0.358-0.124,0.706-0.251,1.055-0.395c0.348-0.145,0.716-0.31,1.113-0.503c0.387-0.189,0.822-0.411,1.287-0.663
		C284.817,62.09,285.34,61.8,285.939,61.461z"/>
	<path fill="#1F2351" d="M291.431,41.656v26.219h-3.663V41.656H291.431z"/>
	<path fill="#1F2351" d="M307.974,41.474l12.071,26.4h-3.904l-3.866-8.45H301.49l-3.871,8.45h-3.938l12.11-26.4H307.974z
		 M303.029,56.052h7.703l-3.866-8.45L303.029,56.052z"/>
	<path fill="#1F2351" d="M344.261,64.507v3.368h-22.929l-0.532-1.611l17.408-21.243h-16.479v-3.365h22.029l0.464,1.79
		l-17.408,21.061H344.261z"/>
	<path fill="#1F2351" d="M349.631,41.656v26.219h-3.648V41.656H349.631z"/>
	<path fill="#1F2351" d="M376.852,45.161c2.681,2.605,4.011,5.806,4.011,9.602c0,3.774-1.33,6.965-4.011,9.565
		c-2.642,2.579-5.922,3.868-9.812,3.868c-3.938,0-7.224-1.275-9.852-3.834c-2.651-2.579-3.977-5.777-3.977-9.599
		c0-3.82,1.315-7.008,3.938-9.565c2.656-2.576,5.951-3.871,9.89-3.871C370.91,41.327,374.181,42.609,376.852,45.161z
		 M374.099,61.749c1.955-1.959,2.941-4.287,2.941-6.986c0-2.697-0.986-5.024-2.941-6.982c-1.936-1.935-4.291-2.905-7.059-2.905
		c-2.792,0-5.148,0.97-7.094,2.905c-1.935,1.933-2.902,4.263-2.902,6.982c0,2.746,0.958,5.075,2.874,6.986
		c1.926,1.936,4.306,2.903,7.122,2.903C369.808,64.652,372.163,63.685,374.099,61.749z"/>
	<path fill="#1F2351" d="M409.273,41.656v26.219h-2.898l-17.268-19.842v19.842h-3.688V41.656h2.933
		c1.669,2.027,3.285,3.938,4.843,5.726c1.544,1.795,3.111,3.549,4.688,5.269c1.287,1.456,2.574,2.92,3.847,4.388
		c1.282,1.471,2.56,2.956,3.852,4.461V41.656H409.273z"/>
	<path fill="#1F2351" d="M428.22,64.507v3.368h-15.438V41.656h15.183v3.365h-11.496v7.988h11.182v3.365h-11.182v8.133H428.22z"/>
	<path fill="#1F2351" d="M447.989,50.754c0.383-0.147,0.915-0.363,1.616-0.648c0.688-0.291,1.398-0.428,2.114-0.428
		c2.599,0,4.761,0.859,6.483,2.579c1.718,1.744,2.579,3.965,2.579,6.663c0,1.243-0.218,2.404-0.648,3.493
		c-0.431,1.088-1.064,2.083-1.896,2.993c-1.698,1.858-3.745,2.792-6.164,2.792c-1.025,0-1.965-0.109-2.831-0.322
		c-0.231-0.048-0.459-0.109-0.677-0.182c-0.213-0.07-0.421-0.143-0.609-0.213v8.629h-3.513V50h3.546V50.754z M455.514,63.143
		c1.05-1.093,1.577-2.494,1.577-4.192c0-1.645-0.552-3.017-1.646-4.115c-1.127-1.123-2.511-1.684-4.161-1.684
		c-0.474,0-0.904,0.087-1.292,0.273c-0.377,0.177-0.711,0.324-0.991,0.44c-0.218,0.099-0.421,0.184-0.601,0.254
		c-0.174,0.073-0.324,0.133-0.444,0.177v9.565c0.164,0.102,0.348,0.179,0.537,0.251c0.193,0.07,0.401,0.14,0.647,0.215
		c0.668,0.264,1.457,0.392,2.361,0.392C453.2,64.72,454.536,64.197,455.514,63.143z"/>
	<path fill="#1F2351" d="M466.085,59.241c0.048,1.55,0.58,2.833,1.611,3.832c1.098,1.101,2.458,1.647,4.078,1.647
		c1.195,0,2.226-0.249,3.082-0.752c0.262-0.141,0.513-0.283,0.755-0.428c0.232-0.143,0.489-0.314,0.75-0.518
		c0.267-0.206,0.562-0.455,0.9-0.754c0.329-0.298,0.735-0.663,1.209-1.086v4.398c-1.045,0.815-2.109,1.459-3.184,1.921
		s-2.288,0.697-3.652,0.697c-2.676,0-4.872-0.897-6.59-2.685c-1.718-1.795-2.584-4.057-2.584-6.808c0-1.217,0.193-2.364,0.581-3.44
		c0.377-1.072,0.968-2.052,1.746-2.937c1.582-1.764,3.571-2.649,5.99-2.649c2.356,0,4.296,0.827,5.801,2.472
		c0.76,0.834,1.326,1.807,1.679,2.92c0.358,1.11,0.537,2.499,0.537,4.171H466.085z M466.617,56.413h8.065
		c-0.121-0.406-0.267-0.825-0.45-1.255c-0.184-0.431-0.392-0.762-0.634-1.007c-0.658-0.663-1.592-0.999-2.782-0.999
		c-1.437,0-2.573,0.525-3.41,1.575c-0.141,0.196-0.276,0.455-0.407,0.791C466.869,55.851,466.733,56.151,466.617,56.413z"/>
	<path fill="#1F2351" d="M492.947,50.679c0.382,0.264,0.721,0.518,1.021,0.771c0.296,0.252,0.601,0.578,0.915,0.982l-1.936,3.048
		c-0.691-0.646-1.19-1.101-1.505-1.362c-0.314-0.259-0.59-0.464-0.827-0.607c-0.411-0.242-0.735-0.361-1.002-0.361
		c-0.334,0-0.691,0.104-1.069,0.303c-0.387,0.203-0.817,0.571-1.291,1.096c-0.886,0.953-1.534,1.805-1.931,2.542v10.782h-3.518V50
		h3.518v2.651c0.02-0.048,0.097-0.187,0.228-0.412c0.135-0.227,0.305-0.496,0.513-0.808c0.218-0.308,0.401-0.525,0.547-0.646
		c0.619-0.525,1.229-0.837,1.819-0.946c0.604-0.111,1.166-0.162,1.684-0.162C491.118,49.678,492.062,50.014,492.947,50.679z"/>
	<path fill="#1F2351" d="M14.217,84.639v26.221h-3.513V84.639H14.217z"/>
	<path fill="#1F2351" d="M21.917,84.567v3.367c0,0.789-0.073,1.51-0.218,2.165c-0.145,0.656-0.38,1.239-0.711,1.74
		c-0.338,0.522-0.774,0.994-1.311,1.398c-0.54,0.409-1.282,0.917-2.24,1.536v-3.22c0.119-0.169,0.215-0.29,0.286-0.36
		c0.075-0.07,0.133-0.143,0.179-0.215c0.075-0.046,0.169-0.131,0.291-0.249c0.094-0.097,0.15-0.169,0.179-0.213
		c0.024-0.1,0.046-0.199,0.072-0.31c0.024-0.106,0.043-0.229,0.07-0.375h-0.716v-5.264H21.917z"/>
	<path fill="#1F2351" d="M34.158,84.639v26.221h-3.655V84.639H34.158z"/>
	<path fill="#1F2351" d="M61.916,84.639v26.221h-2.901L41.752,91.014v19.847h-3.691V84.639h2.937
		c1.676,2.035,3.288,3.938,4.835,5.733c1.556,1.788,3.119,3.544,4.696,5.264c1.287,1.457,2.569,2.917,3.851,4.384
		c1.272,1.471,2.56,2.956,3.849,4.464V84.639H61.916z"/>
	<path fill="#1F2351" d="M79.396,84.639v3.368H68.651v7.485h9.635v3.365h-9.635v12.003h-3.689V84.639H79.396z"/>
	<path fill="#1F2351" d="M105.62,88.149c2.673,2.601,4.011,5.804,4.011,9.599c0,3.774-1.338,6.962-4.011,9.563
		c-2.654,2.581-5.922,3.873-9.819,3.873c-3.936,0-7.224-1.28-9.848-3.831c-2.651-2.58-3.977-5.787-3.977-9.605
		c0-3.82,1.316-7.006,3.943-9.565c2.654-2.579,5.946-3.866,9.882-3.866C99.672,84.317,102.942,85.595,105.62,88.149z
		 M102.86,104.732c1.96-1.959,2.935-4.284,2.935-6.984c0-2.697-0.975-5.027-2.935-6.986c-1.933-1.933-4.289-2.9-7.059-2.9
		c-2.789,0-5.153,0.967-7.09,2.9c-1.933,1.936-2.896,4.265-2.896,6.986c0,2.751,0.949,5.074,2.86,6.984
		c1.935,1.938,4.311,2.9,7.126,2.9C98.571,107.633,100.927,106.67,102.86,104.732z"/>
	<path fill="#1F2351" d="M128.368,102.441l5.477,8.419h-4.369l-4.548-7.091c-0.46-0.691-0.881-1.328-1.277-1.898
		c-0.397-0.576-0.784-1.086-1.2-1.543c-0.667-0.786-1.703-1.181-3.111-1.181h-2.833v11.713h-3.687V84.639h7.052
		c1.364,0,2.593,0.141,3.692,0.428c1.103,0.288,2.071,0.74,2.903,1.36c0.832,0.646,1.461,1.435,1.877,2.368
		c0.426,0.927,0.629,1.967,0.629,3.116c0,1.814-0.542,3.285-1.645,4.405c-0.697,0.694-1.418,1.266-2.187,1.715
		c0.193,0.193,0.377,0.397,0.561,0.61c0.174,0.215,0.358,0.457,0.547,0.721c0.382,0.549,0.75,1.072,1.098,1.575
		C127.69,101.438,128.029,101.938,128.368,102.441z M123.815,94.739c0.426-0.336,0.755-0.726,0.987-1.181
		c0.223-0.455,0.339-1.016,0.339-1.684c0-1.193-0.426-2.129-1.287-2.794c-0.978-0.714-2.312-1.074-4.016-1.074h-3.332v7.768h3.155
		c0.96,0,1.773-0.087,2.451-0.266C122.799,95.33,123.36,95.076,123.815,94.739z"/>
	<path fill="#1F2351" d="M161.965,84.639v26.221h-3.696V90.762l-8.38,10.388l-8.409-10.388v20.098h-3.691V84.639h3.227l8.874,10.853
		l8.849-10.853H161.965z"/>
	<path fill="#1F2351" d="M179.516,84.456l12.076,26.405h-3.909l-3.871-8.454h-10.787l-3.856,8.454h-3.948l12.11-26.405H179.516z
		 M174.569,99.041h7.705l-3.871-8.455L174.569,99.041z"/>
	<path fill="#1F2351" d="M207.385,84.639v3.368h-9.164v22.854h-3.687V88.007h-9.183v-3.368H207.385z"/>
	<path fill="#1F2351" d="M213.549,84.639v26.221h-3.658V84.639H213.549z"/>
	<path fill="#1F2351" d="M239.879,104.442v4.021c-0.813,0.475-1.587,0.866-2.332,1.178c-0.745,0.312-1.5,0.586-2.293,0.826
		c-0.832,0.261-1.635,0.442-2.4,0.553c-0.764,0.109-1.519,0.165-2.254,0.165c-4.113,0-7.5-1.253-10.18-3.765
		c-2.69-2.506-4.044-5.732-4.044-9.671c0-3.82,1.354-7.02,4.044-9.599c1.365-1.292,2.894-2.252,4.577-2.886
		c1.674-0.632,3.503-0.946,5.487-0.946c1.413,0,2.874,0.189,4.374,0.571c0.812,0.193,1.596,0.43,2.332,0.716
		c0.735,0.288,1.539,0.658,2.399,1.113v4.19c-1.219-0.694-2.206-1.214-2.971-1.558c-0.774-0.346-1.49-0.627-2.187-0.842
		c-1.413-0.43-2.835-0.646-4.258-0.646c-2.854,0-5.216,0.941-7.103,2.83c-1.907,1.863-2.865,4.217-2.865,7.057
		c0,2.937,0.929,5.312,2.797,7.126c1.887,1.842,4.306,2.758,7.267,2.758c1.625,0,3.145-0.248,4.548-0.75
		c0.368-0.117,0.716-0.251,1.055-0.396c0.358-0.143,0.726-0.307,1.113-0.5c0.407-0.189,0.833-0.412,1.297-0.658
		C238.747,105.074,239.279,104.781,239.879,104.442z"/>
	<path fill="#1F2351" d="M254.636,84.456l12.067,26.405h-3.91l-3.861-8.454h-10.79l-3.861,8.454h-3.938l12.096-26.405H254.636z
		 M249.691,99.041h7.703l-3.871-8.455L249.691,99.041z"/>
	<path fill="#1F2351" d="M302.492,84.639v14.723c0,1.696-0.256,3.247-0.755,4.654c-0.499,1.411-1.263,2.676-2.284,3.801
		c-2.081,2.24-4.775,3.367-8.065,3.367c-3.28,0-5.941-1.091-8.022-3.259c-2.081-2.177-3.116-4.967-3.116-8.384V84.639h3.677v14.759
		c0,1.335,0.174,2.504,0.532,3.491c0.339,0.989,0.852,1.843,1.52,2.562c1.335,1.459,3.145,2.182,5.438,2.182
		c2.274,0,4.064-0.75,5.38-2.254c0.639-0.735,1.137-1.619,1.48-2.633c0.354-1.016,0.527-2.189,0.527-3.529V84.639H302.492z"/>
	<path fill="#1F2351" d="M331.43,84.639v26.221h-3.692V90.762l-8.375,10.388l-8.414-10.388v20.098h-3.697V84.639h3.232l8.878,10.853
		l8.849-10.853H331.43z"/>
	<path fill="#1F2351" d="M348.983,84.456l12.072,26.405h-3.904l-3.861-8.454h-10.785l-3.871,8.454h-3.943l12.115-26.405H348.983z
		 M344.038,99.041h7.698l-3.866-8.455L344.038,99.041z"/>
	<path fill="#1F2351" d="M386.988,84.639v26.221h-2.898l-17.263-19.847v19.847h-3.692V84.639h2.942
		c1.664,2.035,3.28,3.938,4.833,5.733c1.549,1.788,3.111,3.544,4.698,5.264c1.277,1.457,2.564,2.917,3.842,4.384
		c1.277,1.471,2.564,2.956,3.851,4.464V84.639H386.988z"/>
	<path fill="#1F2351" d="M394.551,84.639v26.221h-3.653V84.639H394.551z"/>
	<path fill="#1F2351" d="M410.957,98.823c1.05,1.198,1.567,2.84,1.567,4.947c0,2.027-0.765,3.77-2.283,5.227
		c-1.534,1.458-3.368,2.188-5.516,2.188c-1.505,0-2.918-0.288-4.229-0.863c-0.576-0.264-1.118-0.527-1.621-0.789
		c-0.489-0.264-0.982-0.581-1.456-0.968v-4.437c0.634,0.474,1.189,0.884,1.659,1.212c0.469,0.339,0.881,0.615,1.238,0.825
		c0.358,0.218,0.663,0.396,0.934,0.542c0.262,0.145,0.499,0.262,0.712,0.355c0.832,0.383,1.649,0.57,2.434,0.57
		c1.243,0,2.283-0.377,3.125-1.146c0.804-0.788,1.21-1.727,1.21-2.828c0-0.623-0.082-1.148-0.262-1.574
		c-0.179-0.431-0.454-0.801-0.812-1.11c-0.426-0.332-0.982-0.675-1.664-1.021c-0.683-0.346-1.52-0.687-2.525-1.023
		c-2.076-0.716-3.639-1.602-4.693-2.646c-0.576-0.6-0.997-1.29-1.272-2.081c-0.276-0.786-0.406-1.66-0.406-2.615
		c0-2.008,0.788-3.711,2.36-5.119c1.524-1.437,3.358-2.151,5.478-2.151c1.533,0,2.869,0.228,4.016,0.678
		c0.571,0.191,1.055,0.389,1.446,0.592c0.397,0.204,0.774,0.436,1.128,0.699l0.077,4.154c-0.479-0.288-0.891-0.53-1.238-0.73
		c-0.344-0.206-0.648-0.38-0.915-0.522c-0.261-0.141-0.508-0.269-0.73-0.375c-0.232-0.106-0.469-0.22-0.701-0.341
		c-0.784-0.406-1.742-0.609-2.859-0.609c-1.225,0-2.226,0.358-3.015,1.079c-0.808,0.782-1.214,1.645-1.214,2.577
		c0,0.571,0.087,1.042,0.246,1.413c0.17,0.373,0.383,0.675,0.644,0.912c0.697,0.619,1.94,1.27,3.73,1.933
		c1.268,0.457,2.347,0.929,3.256,1.42C409.714,97.679,410.43,98.225,410.957,98.823z"/>
	<path fill="#1F2351" d="M435.458,84.639v3.368h-9.168v22.854h-3.692V88.007h-9.173v-3.368H435.458z"/>
	<path fill="#1F2351" d="M441.617,84.639v26.221h-3.652V84.639H441.617z"/>
	<path fill="#1F2351" d="M467.942,104.442v4.021c-0.808,0.475-1.587,0.866-2.322,1.178c-0.745,0.312-1.509,0.586-2.293,0.826
		c-0.837,0.261-1.641,0.442-2.399,0.553c-0.774,0.109-1.52,0.165-2.265,0.165c-4.108,0-7.495-1.253-10.17-3.765
		c-2.7-2.506-4.05-5.732-4.05-9.671c0-3.82,1.35-7.02,4.05-9.599c1.364-1.292,2.883-2.252,4.567-2.886
		c1.688-0.632,3.517-0.946,5.501-0.946c1.407,0,2.864,0.189,4.364,0.571c0.817,0.193,1.592,0.43,2.337,0.716
		c0.735,0.288,1.533,0.658,2.39,1.113v4.19c-1.209-0.694-2.201-1.214-2.966-1.558c-0.765-0.346-1.495-0.627-2.187-0.842
		c-1.403-0.43-2.826-0.646-4.263-0.646c-2.84,0-5.211,0.941-7.098,2.83c-1.901,1.863-2.859,4.217-2.859,7.057
		c0,2.937,0.929,5.312,2.796,7.126c1.883,1.842,4.302,2.758,7.272,2.758c1.62,0,3.135-0.248,4.548-0.75
		c0.354-0.117,0.706-0.251,1.055-0.396c0.349-0.143,0.711-0.307,1.108-0.5c0.396-0.189,0.822-0.412,1.291-0.658
		C466.815,105.074,467.348,104.781,467.942,104.442z"/>
	<path fill="#1F2351" d="M482.704,84.456l12.067,26.405h-3.9l-3.865-8.454h-10.789l-3.866,8.454h-3.943l12.11-26.405H482.704z
		 M477.76,99.041h7.702l-3.87-8.455L477.76,99.041z"/>
	<path fill="#1F2351" d="M109.024,145.21c0.053,1.556,0.585,2.828,1.616,3.837c1.093,1.089,2.458,1.646,4.081,1.646
		c1.193,0,2.223-0.244,3.08-0.755c0.264-0.141,0.508-0.283,0.755-0.426c0.237-0.146,0.489-0.321,0.752-0.528
		c0.261-0.197,0.556-0.444,0.895-0.749c0.329-0.293,0.738-0.655,1.212-1.091v4.412c-1.047,0.812-2.107,1.444-3.186,1.914
		c-1.072,0.461-2.289,0.699-3.653,0.699c-2.671,0-4.875-0.902-6.59-2.684c-1.718-1.8-2.581-4.064-2.581-6.807
		c0-1.225,0.196-2.369,0.576-3.447c0.382-1.067,0.965-2.053,1.754-2.93c1.577-1.773,3.573-2.657,5.985-2.657
		c2.358,0,4.296,0.823,5.804,2.473c0.767,0.832,1.331,1.81,1.679,2.92c0.358,1.11,0.537,2.504,0.537,4.173H109.024z
		 M109.563,142.378h8.058c-0.113-0.406-0.268-0.823-0.452-1.249c-0.177-0.431-0.382-0.759-0.622-1.007
		c-0.67-0.664-1.602-0.998-2.794-0.998c-1.43,0-2.569,0.524-3.409,1.574c-0.138,0.193-0.278,0.453-0.406,0.791
		C109.806,141.818,109.682,142.116,109.563,142.378z"/>
	<path fill="#1F2351" d="M139.433,127.623v26.222h-3.508v-26.222H139.433z"/>
	<path fill="#1F2351" d="M156.164,153.021c-0.218,0.065-0.436,0.201-0.644,0.39c-0.218,0.193-0.416,0.314-0.615,0.355
		c-0.997,0.266-2.003,0.402-3.009,0.402c-2.506,0-4.582-0.823-6.227-2.479c-1.625-1.688-2.443-3.805-2.443-6.335
		c0-1.389,0.213-2.663,0.62-3.835c0.401-1.173,1.035-2.205,1.896-3.117c1.669-1.834,3.851-2.759,6.512-2.759
		c0.702,0,1.369,0.141,2.027,0.416c0.658,0.274,1.297,0.542,1.921,0.804v-0.893h3.474v17.938h-3.512V153.021z M154.732,150.448
		c0.256-0.127,0.513-0.301,0.764-0.525c0.261-0.228,0.489-0.396,0.707-0.522v-8.878c-0.15-0.1-0.314-0.252-0.503-0.453
		c-0.193-0.198-0.421-0.36-0.682-0.481c-0.644-0.31-1.447-0.464-2.4-0.464c-1.669,0-3.048,0.575-4.117,1.717
		c-1.098,1.172-1.655,2.664-1.655,4.48c0,1.721,0.494,3.041,1.476,3.973c0.953,1.009,2.26,1.507,3.905,1.507
		C153.271,150.801,154.107,150.685,154.732,150.448z"/>
	<path fill="#1F2351" d="M197.534,147.434v4.009c-0.812,0.477-1.587,0.875-2.322,1.186c-0.745,0.307-1.5,0.582-2.293,0.816
		c-0.832,0.264-1.645,0.458-2.399,0.566c-0.765,0.102-1.52,0.158-2.265,0.158c-4.103,0-7.49-1.256-10.167-3.765
		c-2.7-2.509-4.05-5.726-4.05-9.672c0-3.817,1.35-7.021,4.05-9.6c1.362-1.289,2.881-2.252,4.565-2.881
		c1.684-0.637,3.513-0.953,5.496-0.953c1.413,0,2.874,0.193,4.374,0.576c0.813,0.19,1.587,0.43,2.322,0.713
		c0.745,0.288,1.548,0.66,2.4,1.113v4.192c-1.209-0.694-2.197-1.214-2.971-1.563c-0.765-0.34-1.49-0.623-2.177-0.834
		c-1.413-0.434-2.835-0.648-4.277-0.648c-2.835,0-5.196,0.945-7.083,2.83c-1.906,1.863-2.867,4.212-2.867,7.055
		c0,2.937,0.941,5.317,2.799,7.132c1.877,1.831,4.306,2.758,7.267,2.758c1.626,0,3.135-0.254,4.548-0.752
		c0.358-0.124,0.706-0.257,1.055-0.397c0.358-0.138,0.726-0.312,1.113-0.495c0.396-0.199,0.822-0.42,1.287-0.671
		C196.412,148.06,196.944,147.763,197.534,147.434z"/>
	<path fill="#1F2351" d="M222.074,127.623v14.721c0,1.696-0.251,3.249-0.745,4.659c-0.503,1.405-1.277,2.67-2.303,3.798
		c-2.081,2.247-4.761,3.368-8.061,3.368c-3.271,0-5.941-1.092-8.021-3.267c-2.071-2.173-3.116-4.959-3.116-8.38v-14.899h3.687
		v14.755c0,1.342,0.174,2.506,0.522,3.498c0.348,0.986,0.861,1.843,1.519,2.555c1.345,1.461,3.155,2.191,5.448,2.191
		c2.274,0,4.064-0.752,5.38-2.26c0.648-0.735,1.142-1.618,1.481-2.632c0.348-1.011,0.522-2.189,0.522-3.522v-14.585H222.074z"/>
	<path fill="#1F2351" d="M242.027,150.477v3.368h-15.764v-26.222h3.687v22.854H242.027z"/>
	<path fill="#1F2351" d="M258.255,127.623v3.365h-9.173v22.856h-3.697v-22.856h-9.164v-3.365H258.255z"/>
	<path fill="#1F2351" d="M282.543,127.623v14.721c0,1.696-0.261,3.249-0.754,4.659c-0.503,1.405-1.268,2.67-2.293,3.798
		c-2.081,2.247-4.771,3.368-8.061,3.368c-3.28,0-5.941-1.092-8.022-3.267c-2.081-2.173-3.116-4.959-3.116-8.38v-14.899h3.687v14.755
		c0,1.342,0.174,2.506,0.522,3.498c0.339,0.986,0.852,1.843,1.52,2.555c1.335,1.461,3.154,2.191,5.438,2.191
		c2.274,0,4.064-0.752,5.38-2.26c0.648-0.735,1.132-1.618,1.48-2.632c0.348-1.011,0.522-2.189,0.522-3.522v-14.585H282.543z"/>
	<path fill="#1F2351" d="M301.417,145.428l5.477,8.417h-4.364l-4.548-7.096c-0.455-0.689-0.881-1.321-1.277-1.896
		c-0.392-0.576-0.789-1.086-1.2-1.544c-0.663-0.786-1.703-1.178-3.116-1.178h-2.826v11.714h-3.691v-26.222h7.054
		c1.364,0,2.593,0.145,3.696,0.431c1.094,0.29,2.061,0.737,2.898,1.356c0.832,0.646,1.461,1.438,1.877,2.367
		c0.417,0.934,0.634,1.969,0.634,3.115c0,1.821-0.556,3.285-1.654,4.405c-0.687,0.694-1.423,1.27-2.182,1.723
		c0.193,0.191,0.377,0.392,0.556,0.602c0.174,0.223,0.363,0.463,0.557,0.722c0.382,0.554,0.745,1.079,1.088,1.577
		C300.75,144.419,301.083,144.925,301.417,145.428z M296.87,137.728c0.431-0.336,0.759-0.732,0.987-1.186
		c0.223-0.452,0.339-1.016,0.339-1.681c0-1.2-0.436-2.125-1.297-2.797c-0.977-0.721-2.312-1.076-4.011-1.076h-3.324v7.777h3.15
		c0.958,0,1.771-0.095,2.448-0.269C295.844,138.315,296.419,138.06,296.87,137.728z"/>
	<path fill="#1F2351" d="M323.306,127.443l12.067,26.401h-3.9l-3.866-8.458h-10.79l-3.866,8.458h-3.938l12.105-26.401H323.306z
		 M318.361,142.024h7.698l-3.866-8.45L318.361,142.024z"/>
	<path fill="#1F2351" d="M368.873,131.133c1.282,1.193,2.245,2.594,2.879,4.188c0.634,1.604,0.943,3.419,0.943,5.448
		c0,3.824-1.214,6.963-3.652,9.42c-1.244,1.244-2.705,2.158-4.398,2.754c-1.693,0.6-3.609,0.902-5.733,0.902h-9.855v-26.222h9.604
		c2.123,0,4.03,0.285,5.732,0.859C366.087,129.055,367.577,129.943,368.873,131.133z M366.048,147.83
		c1.877-1.771,2.825-4.13,2.825-7.062c0-2.941-0.938-5.303-2.796-7.091c-1.863-1.79-4.398-2.689-7.597-2.689h-5.729v19.488h5.651
		C361.606,150.477,364.151,149.591,366.048,147.83z"/>
	<path fill="#1F2351" d="M380.258,127.623v26.222h-3.652v-26.222H380.258z"/>
	<path fill="#1F2351" d="M407.479,140.945v10.784c-0.837,0.434-1.616,0.794-2.322,1.072c-0.722,0.285-1.462,0.522-2.221,0.719
		c-1.583,0.426-3.242,0.648-4.984,0.648c-4.035,0-7.402-1.283-10.097-3.835c-2.725-2.583-4.089-5.802-4.089-9.667
		c0-3.803,1.336-6.981,3.978-9.534c2.627-2.555,5.912-3.834,9.855-3.834c1.979,0,3.793,0.269,5.434,0.789
		c0.817,0.261,1.533,0.521,2.162,0.773c0.61,0.25,1.239,0.549,1.854,0.912v4.225c-1.258-0.743-2.289-1.287-3.058-1.646
		c-0.779-0.362-1.515-0.646-2.202-0.856c-1.412-0.434-2.811-0.648-4.189-0.648c-2.879,0-5.24,0.93-7.132,2.794
		c-1.916,1.858-2.864,4.217-2.864,7.057c0,3.002,0.948,5.407,2.864,7.197c1.96,1.822,4.533,2.727,7.731,2.727
		c1.268,0,2.468-0.146,3.59-0.434c0.431-0.118,0.809-0.236,1.147-0.359c0.333-0.111,0.624-0.238,0.89-0.356v-5.157h-5.157v-3.37
		H407.479z"/>
	<path fill="#1F2351" d="M413.396,127.623v26.222h-3.657v-26.222H413.396z"/>
	<path fill="#1F2351" d="M437.998,127.623v3.365h-9.173v22.856h-3.687v-22.856h-9.169v-3.365H437.998z"/>
	<path fill="#1F2351" d="M446.059,127.443l12.067,26.401h-3.899l-3.871-8.458h-10.779l-3.866,8.458h-3.948l12.11-26.401H446.059z
		 M441.109,142.024h7.708l-3.871-8.45L441.109,142.024z"/>
	<path fill="#1F2351" d="M475.215,150.477v3.368h-15.759v-26.222h3.688v22.854H475.215z"/>
	<path fill="#1F2351" d="M492.807,150.477v3.368h-15.443v-26.222h15.188v3.365h-11.496v7.99h11.172v3.365h-11.172v8.133H492.807z"/>
</g>
<path fill="#999999" d="M519.635,18.464c0.045-0.004,0.087-0.021,0.133-0.021c0.374,0,0.722,0.106,1.044,0.319
	c0.322,0.212,0.612,0.57,0.87,1.073l0.628,1.72c0.148,0.645,0.223,1.366,0.223,2.165v0.154c0,0.402-0.019,0.784-0.057,1.146
	l1.244,3.041c0.515-1.188,0.784-2.584,0.784-4.206V23.74c0-2.036-0.406-3.73-1.218-5.083c-0.413-0.696-0.912-1.221-1.498-1.576
	c-0.587-0.354-1.247-0.531-1.981-0.531c-0.414,0-0.802,0.061-1.167,0.17C518.978,17.264,519.308,17.84,519.635,18.464z"/>
<path fill="#999999" d="M528.491,44.698c0.147-0.622,0.35-1.18,0.612-1.667c0.284-0.503,0.58-0.86,0.89-1.073
	c0.31-0.213,0.638-0.319,0.985-0.319c0.374,0,0.722,0.106,1.044,0.319c0.322,0.212,0.612,0.57,0.87,1.073
	c0.271,0.502,0.479,1.076,0.628,1.72s0.223,1.366,0.223,2.165v0.154c0,0.799-0.074,1.521-0.223,2.165
	c-0.148,0.645-0.357,1.218-0.628,1.72c-0.283,0.502-0.58,0.86-0.89,1.073c-0.309,0.213-0.638,0.319-0.985,0.319
	c-0.374,0-0.719-0.106-1.034-0.319c-0.315-0.212-0.615-0.57-0.898-1.073c-0.122-0.227-0.226-0.473-0.321-0.726
	c-0.025,1.042-0.093,2.098-0.206,3.167c0.141,0.116,0.287,0.221,0.44,0.313c0.586,0.354,1.246,0.532,1.98,0.532
	c1.482,0,2.655-0.702,3.519-2.107c0.812-1.353,1.218-3.047,1.218-5.083v-0.116c0-2.036-0.406-3.73-1.218-5.083
	c-0.413-0.696-0.912-1.221-1.498-1.576c-0.587-0.354-1.247-0.531-1.981-0.531c-1.268,0-2.307,0.518-3.12,1.544
	C528.141,42.405,528.342,43.54,528.491,44.698z"/>
<path fill="#999999" d="M556.919,111.438c-0.413-0.695-0.912-1.221-1.498-1.575c-0.587-0.354-1.247-0.531-1.981-0.531
	c-0.325,0-0.633,0.04-0.928,0.107c0.157,0.178,0.308,0.362,0.436,0.559c0.293,0.421,0.514,0.846,0.706,1.265
	c0.277,0.039,0.544,0.119,0.791,0.283c0.322,0.212,0.612,0.569,0.87,1.072c0.271,0.502,0.479,1.076,0.628,1.721
	s0.223,1.365,0.223,2.164v0.154c0,0.8-0.074,1.521-0.223,2.166s-0.357,1.217-0.628,1.72c-0.283,0.503-0.58,0.86-0.89,1.073
	c-0.309,0.213-0.638,0.318-0.985,0.318c-0.225,0-0.436-0.051-0.64-0.128l-0.409,0.471c-0.318,0.356-0.654,0.687-0.996,1.002
	c0.009,0.005,0.017,0.013,0.025,0.019c0.586,0.354,1.246,0.531,1.98,0.531c1.482,0,2.655-0.702,3.519-2.107
	c0.812-1.353,1.218-3.047,1.218-5.083v-0.116C558.137,114.486,557.73,112.791,556.919,111.438z"/>
<path fill="#999999" d="M544.21,133.058c-0.587-0.354-1.247-0.531-1.981-0.531c-1.019,0-1.888,0.34-2.613,1.003
	c0.272,0.765,0.562,1.46,0.844,2.07c0.24-0.381,0.486-0.683,0.745-0.859c0.31-0.213,0.638-0.32,0.985-0.32
	c0.374,0,0.722,0.107,1.044,0.32c0.322,0.212,0.612,0.569,0.87,1.072c0.271,0.502,0.479,1.075,0.628,1.72s0.223,1.366,0.223,2.165
	v0.154c0,0.8-0.074,1.521-0.223,2.165c-0.148,0.645-0.357,1.218-0.628,1.721c-0.283,0.502-0.58,0.86-0.89,1.072
	c-0.299,0.206-0.618,0.309-0.955,0.314c-0.079,0.165-0.15,0.33-0.241,0.495c-0.249,0.447-0.548,0.867-0.87,1.271
	c0.329,0.089,0.677,0.133,1.042,0.133c1.482,0,2.655-0.702,3.519-2.107c0.812-1.353,1.218-3.047,1.218-5.083v-0.116
	c0-2.036-0.406-3.73-1.218-5.084C545.295,133.938,544.796,133.412,544.21,133.058z"/>
<path fill="#999999" d="M535.156,161.159c-0.31,0.178-0.604,0.347-0.919,0.553c-0.192,0.124-0.355,0.245-0.534,0.367
	c0.02,0.266,0.04,0.528,0.04,0.813v0.154c0,0.8-0.074,1.521-0.223,2.165c-0.148,0.645-0.357,1.218-0.628,1.721
	c-0.283,0.502-0.58,0.86-0.89,1.072c-0.252,0.174-0.521,0.258-0.799,0.29l0.106,0.212c0.248,0.497,0.509,1.024,0.769,1.564
	c0.975-0.271,1.781-0.923,2.418-1.96c0.812-1.353,1.218-3.047,1.218-5.083v-0.116c0-0.706-0.067-1.356-0.165-1.98
	C535.418,161.008,535.284,161.087,535.156,161.159z"/>
<path fill="#999999" d="M533.678,184.885c0.041,0.38,0.065,0.779,0.065,1.203v0.154c0,0.8-0.074,1.521-0.223,2.165
	c-0.148,0.645-0.357,1.218-0.628,1.721c-0.283,0.502-0.58,0.86-0.89,1.072c-0.309,0.213-0.638,0.319-0.985,0.319
	c-0.374,0-0.719-0.106-1.034-0.319c-0.079-0.053-0.154-0.143-0.231-0.214c-0.452,0.476-0.93,0.93-1.43,1.364
	c0.212,0.204,0.435,0.386,0.676,0.531c0.586,0.354,1.246,0.532,1.98,0.532c1.482,0,2.655-0.702,3.519-2.107
	c0.812-1.353,1.218-3.047,1.218-5.083v-0.116c0-1.983-0.393-3.637-1.162-4.972C534.43,182.398,534.135,183.659,533.678,184.885z"/>
<path d="M448.512,198.985l3.034-4.093c1.011-1.362,2.206-2.46,3.644-3.362c1.476-0.902,3.077-1.524,5.031-1.965
	c0.619-0.141,2.874-0.614,5.859-0.824l2.946-0.139c1.113-0.023,2.178-0.031,3.271,0c2.119,0.046,4.341,0.174,6.604,0.38
	c3.847,0.347,7.998,0.893,13.475,1.795l6.774,1.108c1.093,0.166,2.182,0.331,3.159,0.379c0.958,0.049,1.896,0.119,2.835,0.194
	l0.688,0.044c1.674,0.135,3.647,0.266,5.627,0.266c2.825,0,5.206-0.278,7.271-0.856c1.993-0.544,3.779-1.398,5.317-2.53
	c1.554-1.152,2.913-2.601,3.929-4.189c0.973-1.563,1.544-3.276,1.636-4.953c0.097-1.602-0.185-3.357-0.852-5.228
	c-0.513-1.476-1.215-2.859-1.96-4.33l-0.459-0.919c-0.76-1.477-1.089-2.862-0.973-4.105c0.082-1.297,0.565-2.605,1.417-3.85
	c1.379-1.951,3.087-3.217,4.732-4.286c0.396-0.267,0.842-0.524,1.263-0.763c0.334-0.184,0.639-0.357,0.861-0.52
	c0.392-0.271,0.687-0.59,0.856-0.91c0.329-0.621,0.174-1.449-0.141-1.951c-0.087-0.134-0.092-0.134-0.324-0.361
	c-0.334-0.328-0.619-0.611-0.904-0.967c-0.306-0.373-0.789-0.976-1.012-1.986c-0.208-0.994,0.024-2.035,0.634-2.867
	c0.799-1.027,1.549-1.43,2.158-1.759l0.711-0.36l0.871,0.986l-0.6-1.119c0.164-0.082,0.314-0.187,0.464-0.288
	c0.663-0.483,1.069-1.06,1.292-1.462c0.46-0.8,0.475-1.48,0.45-1.674h-0.005l-1.021-1.512l0.005-0.031
	c-0.89-1.574-1.684-3.355-2.38-5.376l-0.431-1.245c-0.208-0.524-0.46-1.224-0.591-2.065c-0.159-1.021-0.082-2.035,0.232-2.936
	c0.324-0.957,0.978-1.891,1.839-2.603c1.389-1.181,3.062-1.716,4.654-2.165c1.48-0.457,2.772-0.953,3.914-1.51
	c1.452-0.707,2.628-1.488,3.595-2.381c0.271-0.244,0.537-0.51,0.794-0.788l0.585-0.671c0.136-0.229,0.311-0.781,0.368-1.502
	c0.106-1.484-0.218-3.021-0.832-3.899c-0.121-0.184-0.522-0.524-0.789-0.75c-0.357-0.302-0.74-0.629-1.074-0.97l-6.798-6.414
	c-1.911-1.748-3.474-3.32-4.775-4.792c-3.033-3.404-5.781-7.233-8.177-11.39c-2.54-4.434-4.479-8.874-5.767-13.194
	c-0.344-1.176-0.644-2.366-0.891-3.571c-0.131-0.634-0.237-1.193-0.329-1.896c-0.087-0.726-0.092-1.464-0.02-2.272
	c0.232-2.034,0.77-3.75,1.287-5.412c0.179-0.571,0.344-1.132,0.503-1.696c1.326-4.313,1.911-8.484,1.747-12.437
	c-0.121-4.074-1.243-8.029-2.39-11.723c-0.596-1.882-1.244-3.713-1.907-5.486l-3.387-8.308c-1.538-3.525-2.07-5.724-2.776-8.922
	l-1.094-4.988l3.3,3.893c2.23,2.632,3.565,4.5,5.147,8.017l3.493,8.537c0.697,1.855,1.369,3.769,2.003,5.748
	c1.297,4.214,2.468,8.377,2.623,13.054c0.184,4.437-0.494,9.292-1.95,14.031c-0.154,0.539-0.329,1.103-0.503,1.662
	c-0.493,1.606-0.963,3.123-1.113,4.519c-0.038,0.414-0.033,0.813,0.005,1.178c0.059,0.423,0.165,0.992,0.267,1.493
	c0.218,1.06,0.483,2.114,0.788,3.157c1.176,3.948,2.966,8.029,5.303,12.125c2.222,3.847,4.771,7.398,7.577,10.552
	c1.234,1.389,2.608,2.768,4.451,4.463l6.852,6.476c0.343,0.322,0.667,0.605,1.04,0.925c0.493,0.416,1.079,0.938,1.476,1.551
	c0.9,1.294,1.268,2.668,1.466,3.59c0.242,1.183,0.314,2.368,0.228,3.536c-0.111,1.201-0.324,2.466-1.122,3.766
	c-0.093,0.162-0.228,0.326-0.344,0.485l-0.784,0.902c-0.353,0.395-0.721,0.765-1.103,1.108c-1.326,1.222-2.894,2.267-4.785,3.186
	c-1.398,0.683-2.923,1.271-4.669,1.805l-0.31,0.09c-0.566,0.164-1.021,0.295-1.472,0.486c-0.459,0.195-0.842,0.408-1.098,0.624
	c-0.344,0.3-0.411,0.479-0.339,0.956c0.039,0.261,0.131,0.585,0.3,1.011l0.281,0.696c0.058,0.165,0.149,0.443,0.198,0.637
	l0.067,0.232c0.475,1.428,1.05,2.646,1.495,3.539c0.324,0.648,0.552,1.017,0.609,1.12l0.396,0.611
	c0.252,0.334,0.431,0.586,0.519,0.772c0.977,1.763,0.812,4.14-0.465,6.469c-0.668,1.2-1.616,2.267-2.748,3.087
	c-0.329,0.236-0.653,0.442-0.997,0.629c-0.106,0.061-0.232,0.123-0.367,0.184l-0.194,0.1c0.257,0.262,0.648,0.703,0.905,1.139
	c0.595,0.963,0.948,2.055,1.04,3.216c0.111,1.233-0.145,2.53-0.726,3.641c-0.513,1.03-1.354,1.974-2.404,2.714
	c-0.527,0.355-0.953,0.596-1.37,0.832c-0.31,0.178-0.604,0.347-0.919,0.553c-1.572,1.011-2.661,1.971-3.329,2.934
	c-0.333,0.486-0.527,0.963-0.551,1.369c-0.029,0.39,0.082,0.753,0.474,1.541l0.479,0.951c0.721,1.444,1.548,3.082,2.167,4.838
	c0.886,2.5,1.268,4.921,1.128,7.188c-0.136,2.519-0.963,5.054-2.4,7.33c-1.354,2.131-3.102,4.002-5.187,5.55
	c-2.013,1.48-4.417,2.627-6.952,3.323c-2.521,0.705-5.337,1.043-8.598,1.043c-2.086,0-4.118-0.133-6.005-0.275
	c-1.21-0.092-2.317-0.177-3.392-0.232c-1.297-0.07-2.468-0.246-3.639-0.421l-6.865-1.135c-5.201-0.856-9.367-1.405-13.112-1.741
	c-2.211-0.193-4.32-0.32-6.271-0.358c-1.03-0.026-2.036-0.026-3.028,0l-2.729,0.121c-2.482,0.177-4.428,0.549-5.144,0.701
	c-1.746,0.38-3.087,0.709-4.379,1.043c-1.263,0.349-2.438,0.673-3.793,1.315L448.512,198.985z"/>
</svg>
